<svg xmlns="http://www.w3.org/2000/svg" viewBox="0 0 840 685">
  <g id="Layer_2" data-name="Layer 2">
    <g id="Layer_1-2" data-name="Layer 1">
      <g>
        <rect width="840" height="685" fill="none"/>
        <g>
          <path d="M640.84,354.11c-122.77-70.88-321.16-70.88-443.12,0s-121.33,185.8,1.43,256.68,321.17,70.88,443.14,0S763.61,425,640.84,354.11Z" fill="#f5f5f5"/>
          <path d="M392.64,550.25c-26.84-15.49-70.22-15.49-96.88,0s-26.53,40.62.31,56.12,70.22,15.5,96.89,0S419.48,565.75,392.64,550.25Z" fill="#e6e6e6"/>
          <path d="M664.43,459.94c-28.57-16.49-74.73-16.49-103.11,0-25.07,14.58-27.86,37.14-8.47,53.58-15.65-1-31.86,2-43.81,9-21,12.19-20.86,31.95.25,44.14s55.22,12.19,76.19,0c16.69-9.7,20-24.19,10-35.84,24,3.48,50.51-.22,69.23-11.1C693.14,503.18,693,476.44,664.43,459.94Z" fill="#e6e6e6"/>
          <path d="M511.34,358.76l-20.62-11.88a20.81,20.81,0,0,0-20.83,0L355.5,413.18l-10.09-5.81L262.6,455.82l9.56,5.5L136.76,539.5a6.94,6.94,0,0,0,0,12l20.83,12a20.84,20.84,0,0,0,20.86,0l135.33-78.26,15.81,9.11a41.69,41.69,0,0,0,41.66,0l48.64-28.09a9.26,9.26,0,0,0,0-16.05l-22.8-13.13L416.28,426l6.66-3.86,88.41-51.31A7,7,0,0,0,511.34,358.76Z" fill="#e6e6e6"/>
          <g>
            <g>
              <g>
                <path d="M403,453.68l-39.66,22.69a37.6,37.6,0,0,1-37.44-.06l-29.43-17a11.29,11.29,0,0,1-5.65-9.76l0-20.07-6.14,3.54v17.45a13.18,13.18,0,0,0,6.59,11.41l34.94,20.13a37,37,0,0,0,36.87.06L403,459.25a14.94,14.94,0,0,0,7.29-15.84A14.85,14.85,0,0,1,403,453.68Z" fill="#af6ec3"/>
                <path d="M403,453.68l-39.66,22.69a37.6,37.6,0,0,1-37.44-.06l-29.43-17a11.29,11.29,0,0,1-5.65-9.76l0-20.07-6.14,3.54v17.45a13.18,13.18,0,0,0,6.59,11.41l34.94,20.13a37,37,0,0,0,36.87.06L403,459.25a14.94,14.94,0,0,0,7.29-15.84A14.85,14.85,0,0,1,403,453.68Z" fill="#263238" opacity="0.9"/>
                <path d="M296.5,459.35l29.43,17a37.6,37.6,0,0,0,37.44.06L403,453.68a14.85,14.85,0,0,0,7.29-10.27,14.83,14.83,0,0,0-7-10.11l-32.54-19.51a13.18,13.18,0,0,1-6.39-11.29V387l-73.55,42.52,0,20.07A11.29,11.29,0,0,0,296.5,459.35Z" fill="#37474f"/>
              </g>
              <g>
                <path d="M296.5,459.35a11.29,11.29,0,0,1-5.65-9.76l0-20.07-6.14,3.54v17.45a13.18,13.18,0,0,0,6.59,11.41l12.4,7.14v-5.58Z" opacity="0.4"/>
                <path d="M296.5,459.35l7.17,4.13h0l76.78-43.88-9.69-5.81a13.18,13.18,0,0,1-6.39-11.29V387l-73.55,42.52,0,20.07A11.29,11.29,0,0,0,296.5,459.35Z" opacity="0.3"/>
              </g>
            </g>
            <g>
              <path d="M166.51,509.32h0l-.09,0Z" fill="#ffa8a7"/>
              <path d="M163,502l-.57-251.53c0-7.14,5-15.84,11.22-19.44L486.33,51c3.09-1.78,5.89-2,7.93-.82l-11.77-6.82h0c-2.06-1.31-5-1.2-8.18.66L161.65,224.05c-6.22,3.59-11.24,12.3-11.22,19.44L151,495c0,3.37,1.15,5.77,3,7h0a6.88,6.88,0,0,0,.63.37l11.61,6.76C164.26,508,163,505.5,163,502Z" fill="#af6ec3"/>
              <path d="M482.49,43.33h0c-2.06-1.31-5-1.2-8.18.66L161.65,224.05a23.63,23.63,0,0,0-8.59,9.58l12,7a23.68,23.68,0,0,1,8.59-9.57L486.33,51c3.09-1.78,5.89-2,7.93-.82Z" fill="#263238" opacity="0.9"/>
              <path d="M150.43,243.49,151,495c0,3.37,1.15,5.77,3,7h0a6.88,6.88,0,0,0,.63.37l11.61,6.76c-2-1.19-3.21-3.67-3.22-7.18l-.57-251.53a22.06,22.06,0,0,1,2.63-9.87l-12-7A22.06,22.06,0,0,0,150.43,243.49Z" fill="#263238" opacity="0.9"/>
              <path d="M494.4,50.23l-.06,0,.05,0Z" fill="#ffa8a7"/>
              <path d="M497.62,57.41c0-3.51-1.24-6-3.23-7.18l-.05,0-.08,0c-2-1.14-4.84-1-7.93.82L173.67,231c-6.22,3.6-11.24,12.3-11.22,19.44L163,502c0,3.51,1.24,6,3.22,7.18l.18.1.09,0c2,1.07,4.77.87,7.8-.88L487,328.38c6.21-3.59,11.24-12.3,11.22-19.44ZM481.41,318.75l-307.3,177-.55-245.29c0-3.16,2.9-8.19,5.67-9.78l307.3-177L487.08,309C487.09,312.13,484.18,317.16,481.41,318.75Z" fill="#37474f"/>
              <path d="M486.53,63.68l-7.95,4.59.53,236.82c0,3.16-2.91,8.19-5.67,9.78L174.09,487.25l0,8.47,307.3-177c2.77-1.59,5.68-6.62,5.67-9.78Z" fill="#af6ec3"/>
              <path d="M486.53,63.68l-7.95,4.59.53,236.82c0,3.16-2.91,8.19-5.67,9.78L174.09,487.25l0,8.47,307.3-177c2.77-1.59,5.68-6.62,5.67-9.78Z" fill="#263238" opacity="0.9"/>
              <path d="M479.11,305.09l-.53-236.82L179.23,240.65c-2.77,1.59-5.68,6.62-5.67,9.78l.53,236.82L473.44,314.87C476.2,313.28,479.12,308.25,479.11,305.09Z" fill="#455a64"/>
            </g>
          </g>
          <g>
            <g>
              <g>
                <path d="M210.39,514.7,209.86,277c0-6.75,4.72-15,10.6-18.37L516,88.41c2.92-1.69,5.57-1.86,7.5-.78l-11.13-6.44h0c-2-1.24-4.69-1.14-7.73.62L209.1,252c-5.88,3.4-10.62,11.63-10.6,18.37L199,508.11c0,3.19,1.09,5.46,2.83,6.64h0a4.48,4.48,0,0,0,.6.35l11,6.39C211.56,520.36,210.4,518,210.39,514.7Z" fill="#af6ec3"/>
                <path d="M512.35,81.19h0c-2-1.24-4.69-1.14-7.73.62L209.1,252a22.25,22.25,0,0,0-8.12,9.06l11.37,6.57a22.24,22.24,0,0,1,8.11-9L516,88.41c2.92-1.69,5.57-1.86,7.5-.78Z" fill="#263238" opacity="0.9"/>
              </g>
              <path d="M198.5,270.37,199,508.11c0,3.19,1.09,5.46,2.83,6.64h0a4.48,4.48,0,0,0,.6.35l11,6.39c-1.88-1.13-3-3.47-3.05-6.79L209.86,277a20.86,20.86,0,0,1,2.49-9.33L201,261.06A20.76,20.76,0,0,0,198.5,270.37Z" fill="#263238" opacity="0.9"/>
            </g>
            <g>
              <path d="M209.89,290.74l.5,224c0,3.32,1.17,5.66,3.05,6.79l.17.1.08,0c1.92,1,4.51.82,7.38-.83L516.58,350.61c5.87-3.39,10.63-11.63,10.61-18.37l-.51-224.34Z" fill="#af6ec3"/>
              <path d="M209.89,290.74l.5,224c0,3.32,1.17,5.66,3.05,6.79l.17.1.08,0c1.92,1,4.51.82,7.38-.83L516.58,350.61c5.87-3.39,10.63-11.63,10.61-18.37l-.51-224.34Z" fill="#455a64"/>
            </g>
            <g>
              <g>
                <path d="M514.43,122.81c2.73-1.58,5-.32,5,2.84a10.9,10.9,0,0,1-4.95,8.57L261.14,280.66c-2.74,1.58-5,.31-5-2.84a10.89,10.89,0,0,1,4.95-8.57Z" fill="#af6ec3"/>
                <path d="M514.43,122.81c2.73-1.58,5-.32,5,2.84a10.9,10.9,0,0,1-4.95,8.57L261.14,280.66c-2.74,1.58-5,.31-5-2.84a10.89,10.89,0,0,1,4.95-8.57Z" fill="#27debf"/>
              </g>
              <g>
                <g>
                  <path d="M223.9,293.3a.34.34,0,0,1,.33,0c.21.1.22.45,0,.79l-1.6,2.94,5.4-3.11c.27-.16.5,0,.5.28a1.08,1.08,0,0,1-.5.86l-5.4,3.12,1.61,1.09c.19.12.18.5,0,.83a1,1,0,0,1-.33.34.34.34,0,0,1-.37,0l-2.38-1.61a.23.23,0,0,1-.1-.12.58.58,0,0,1,0-.19,1.52,1.52,0,0,1,0-.21,1.73,1.73,0,0,1,.1-.24l2.37-4.36A1,1,0,0,1,223.9,293.3Z" fill="#af6ec3"/>
                  <path d="M237.54,285.43a.34.34,0,0,1,.37,0l2.38,1.61a.4.4,0,0,1,.1.12.63.63,0,0,1,0,.19.76.76,0,0,1,0,.21,1.85,1.85,0,0,1-.09.23l-2.37,4.37a1.11,1.11,0,0,1-.37.4.35.35,0,0,1-.34,0c-.2-.1-.22-.45,0-.79l1.6-2.95-5.4,3.12c-.28.16-.5,0-.5-.28a1.07,1.07,0,0,1,.5-.86l5.4-3.12-1.62-1.09c-.18-.13-.17-.5,0-.83A1.1,1.1,0,0,1,237.54,285.43Z" fill="#af6ec3"/>
                  <path d="M247.52,279.67a2.51,2.51,0,0,1,1.66-.4,1.06,1.06,0,0,1,.49-.78l0,0c.27-.14.49,0,.48.32l0,1.28a1.08,1.08,0,0,1-.47.82l-1.09.69h0c-.27.15-.49,0-.5-.26a1.09,1.09,0,0,1,.38-.8,2,2,0,0,0-.9.28,4.64,4.64,0,0,0-2.09,3.61c0,1.33.95,1.87,2.1,1.2a4.57,4.57,0,0,0,1.84-2.32,1.07,1.07,0,0,1,.44-.55.43.43,0,0,1,.23-.07c.25,0,.34.31.21.66a6.81,6.81,0,0,1-2.71,3.43c-1.71,1-3.1.19-3.1-1.77A6.75,6.75,0,0,1,247.52,279.67Z" fill="#af6ec3"/>
                </g>
                <g opacity="0.7">
                  <path d="M223.9,293.3a.34.34,0,0,1,.33,0c.21.1.22.45,0,.79l-1.6,2.94,5.4-3.11c.27-.16.5,0,.5.28a1.08,1.08,0,0,1-.5.86l-5.4,3.12,1.61,1.09c.19.12.18.5,0,.83a1,1,0,0,1-.33.34.34.34,0,0,1-.37,0l-2.38-1.61a.23.23,0,0,1-.1-.12.58.58,0,0,1,0-.19,1.52,1.52,0,0,1,0-.21,1.73,1.73,0,0,1,.1-.24l2.37-4.36A1,1,0,0,1,223.9,293.3Z" fill="#fff"/>
                  <path d="M237.54,285.43a.34.34,0,0,1,.37,0l2.38,1.61a.4.4,0,0,1,.1.12.63.63,0,0,1,0,.19.76.76,0,0,1,0,.21,1.85,1.85,0,0,1-.09.23l-2.37,4.37a1.11,1.11,0,0,1-.37.4.35.35,0,0,1-.34,0c-.2-.1-.22-.45,0-.79l1.6-2.95-5.4,3.12c-.28.16-.5,0-.5-.28a1.07,1.07,0,0,1,.5-.86l5.4-3.12-1.62-1.09c-.18-.13-.17-.5,0-.83A1.1,1.1,0,0,1,237.54,285.43Z" fill="#fff"/>
                  <path d="M247.52,279.67a2.51,2.51,0,0,1,1.66-.4,1.06,1.06,0,0,1,.49-.78l0,0c.27-.14.49,0,.48.32l0,1.28a1.08,1.08,0,0,1-.47.82l-1.09.69h0c-.27.15-.49,0-.5-.26a1.09,1.09,0,0,1,.38-.8,2,2,0,0,0-.9.28,4.64,4.64,0,0,0-2.09,3.61c0,1.33.95,1.87,2.1,1.2a4.57,4.57,0,0,0,1.84-2.32,1.07,1.07,0,0,1,.44-.55.43.43,0,0,1,.23-.07c.25,0,.34.31.21.66a6.81,6.81,0,0,1-2.71,3.43c-1.71,1-3.1.19-3.1-1.77A6.75,6.75,0,0,1,247.52,279.67Z" fill="#fff"/>
                </g>
              </g>
            </g>
            <g>
              <g opacity="0.8">
                <path d="M336.87,406.67l175-101a3,3,0,0,1,4.56,2.64V330.3a7.61,7.61,0,0,1-3.8,6.59L337.61,438a3,3,0,0,1-4.57-2.63l0-22.1A7.64,7.64,0,0,1,336.87,406.67Z" fill="#455a64"/>
              </g>
              <g>
                <g opacity="0.8">
                  <path d="M513.14,174.54l0-22a3,3,0,0,0-4.56-2.63L336.86,248.37A7.6,7.6,0,0,0,333,255v22.69a3,3,0,0,0,4.57,2.63l171.73-99.14A7.64,7.64,0,0,0,513.14,174.54Z" fill="#455a64"/>
                </g>
                <g>
                  <polygon points="453.96 203.4 453.97 206.83 343.05 270.88 343.04 267.44 453.96 203.4" fill="#fff"/>
                  <polygon points="453.94 197.04 453.95 200.47 343.03 264.51 343.02 261.08 453.94 197.04" fill="#fff"/>
                  <polygon points="405.35 217.96 405.36 221.39 343.01 257.39 343 253.95 405.35 217.96" fill="#fff"/>
                  <polygon points="497.58 171.46 497.6 174.89 477.86 186.29 477.85 182.85 497.58 171.46" fill="#af6ec3"/>
                  <path d="M498.56,164.14c4.06-2.34,7.37-.47,7.39,4.21a16.18,16.18,0,0,1-7.34,12.71L476.9,193.6c-4.07,2.35-7.37.46-7.39-4.21a16.18,16.18,0,0,1,7.34-12.72Z" fill="#fff"/>
                </g>
              </g>
              <g>
                <g opacity="0.8">
                  <path d="M435.25,339.18l75.07-43.34a12.18,12.18,0,0,0,6.09-10.54V196.22a4.56,4.56,0,0,0-6.85-3.95l-75.07,43.34a12.16,12.16,0,0,0-6.09,10.54v89.08A4.57,4.57,0,0,0,435.25,339.18Z" fill="#455a64"/>
                </g>
                <g>
                  <g style="isolation: isolate">
                    <polygon points="485.81 254.03 500.18 265.34 500.21 276.39 452.41 303.99 452.38 292.94 461.49 274.85 469.67 281.2 466.77 290.18 470.97 282.2 485.81 254.03" fill="#fff"/>
                    <path d="M470.1,259.6c2.25-1.3,4.08-.26,4.09,2.33a9,9,0,0,1-4.06,7c-2.25,1.3-4.08.26-4.09-2.33A9,9,0,0,1,470.1,259.6Z" fill="#fff"/>
                  </g>
                  <g>
                    <path d="M467.23,253.21l2.49-1.44a.35.35,0,1,0-.35-.61l-2.5,1.43a.36.36,0,0,0-.13.49.37.37,0,0,0,.31.17A.39.39,0,0,0,467.23,253.21Z" fill="#fff"/>
                    <path d="M454.74,260.37l2.49-1.43a.36.36,0,1,0-.35-.62l-2.5,1.44a.35.35,0,0,0-.13.48.36.36,0,0,0,.31.18A.41.41,0,0,0,454.74,260.37Z" fill="#fff"/>
                    <path d="M442.25,267.54l2.5-1.43a.36.36,0,0,0-.36-.62l-2.5,1.43a.36.36,0,0,0,.18.67A.41.41,0,0,0,442.25,267.54Z" fill="#fff"/>
                    <path d="M448.49,264l2.5-1.44a.35.35,0,1,0-.35-.61l-2.5,1.43a.35.35,0,0,0-.13.48.33.33,0,0,0,.31.18A.33.33,0,0,0,448.49,264Z" fill="#fff"/>
                    <path d="M461,256.79l2.5-1.43a.36.36,0,0,0,.13-.49.35.35,0,0,0-.48-.13l-2.5,1.43a.36.36,0,0,0-.13.49.35.35,0,0,0,.3.18A.37.37,0,0,0,461,256.79Z" fill="#fff"/>
                    <path d="M498.45,235.29l2.49-1.43a.37.37,0,0,0,.14-.49.36.36,0,0,0-.49-.13l-2.5,1.43a.36.36,0,0,0-.13.49.38.38,0,0,0,.31.18A.41.41,0,0,0,498.45,235.29Z" fill="#fff"/>
                    <path d="M479.71,246l2.5-1.43a.36.36,0,0,0,.13-.49.35.35,0,0,0-.48-.13l-2.5,1.43a.36.36,0,0,0-.13.49.35.35,0,0,0,.31.18A.34.34,0,0,0,479.71,246Z" fill="#fff"/>
                    <path d="M492.2,238.87l2.5-1.43a.36.36,0,0,0-.35-.62l-2.5,1.44a.35.35,0,0,0-.13.48.33.33,0,0,0,.31.18A.26.26,0,0,0,492.2,238.87Z" fill="#fff"/>
                    <path d="M504.51,231.75a.39.39,0,0,0,.18,0l2.5-1.44a.35.35,0,0,0,.13-.48.36.36,0,0,0-.49-.13l-2.49,1.43a.36.36,0,0,0-.13.49A.34.34,0,0,0,504.51,231.75Z" fill="#fff"/>
                    <path d="M486,242.46l2.5-1.44a.35.35,0,0,0,.13-.48.36.36,0,0,0-.49-.13l-2.5,1.43a.35.35,0,0,0,.18.66A.39.39,0,0,0,486,242.46Z" fill="#fff"/>
                    <path d="M512.34,246.79a.35.35,0,0,0-.35-.35.36.36,0,0,0-.36.35v2.81a.36.36,0,0,0,.36.36.35.35,0,0,0,.35-.36Z" fill="#fff"/>
                    <path d="M512.34,239.77a.35.35,0,0,0-.35-.36.36.36,0,0,0-.36.36v2.81a.36.36,0,0,0,.36.35.35.35,0,0,0,.35-.35Z" fill="#fff"/>
                    <path d="M512.34,253.82a.35.35,0,0,0-.35-.36.36.36,0,0,0-.36.36v2.81a.36.36,0,0,0,.36.35.35.35,0,0,0,.35-.35Z" fill="#fff"/>
                    <path d="M512.34,260.84a.34.34,0,0,0-.35-.35.35.35,0,0,0-.36.35v2.81a.36.36,0,0,0,.36.36.35.35,0,0,0,.35-.36Z" fill="#fff"/>
                    <path d="M512.34,267.86a.35.35,0,0,0-.35-.35.36.36,0,0,0-.36.35v2.81a.36.36,0,0,0,.36.36.35.35,0,0,0,.35-.36Z" fill="#fff"/>
                    <path d="M512,274.53a.36.36,0,0,0-.36.36v2.81a.36.36,0,0,0,.36.35.35.35,0,0,0,.35-.35v-2.81A.35.35,0,0,0,512,274.53Z" fill="#fff"/>
                    <path d="M512.34,232.74a.35.35,0,0,0-.35-.35.36.36,0,0,0-.36.35v2.81a.36.36,0,0,0,.36.36.35.35,0,0,0,.35-.36Z" fill="#fff"/>
                    <path d="M482,300.24l-2.49,1.44a.35.35,0,0,0-.13.48.33.33,0,0,0,.3.18.29.29,0,0,0,.18,0l2.49-1.43a.36.36,0,0,0,.13-.49A.35.35,0,0,0,482,300.24Z" fill="#fff"/>
                    <path d="M444.62,321.77l-2.49,1.44a.35.35,0,0,0-.13.48.33.33,0,0,0,.31.18.33.33,0,0,0,.17,0l2.49-1.44a.36.36,0,0,0-.35-.62Z" fill="#fff"/>
                    <path d="M450.84,318.19l-2.49,1.43a.36.36,0,0,0-.13.49.37.37,0,0,0,.31.17.39.39,0,0,0,.18,0l2.49-1.44a.35.35,0,1,0-.36-.61Z" fill="#fff"/>
                    <path d="M500.62,289.48l-2.48,1.43a.36.36,0,0,0-.13.49.34.34,0,0,0,.3.17.39.39,0,0,0,.18,0l2.49-1.44a.35.35,0,0,0,.13-.48A.36.36,0,0,0,500.62,289.48Z" fill="#fff"/>
                    <path d="M463.29,311l-2.49,1.43a.36.36,0,0,0-.13.49.35.35,0,0,0,.3.18.35.35,0,0,0,.18-.05l2.49-1.44a.35.35,0,0,0-.35-.61Z" fill="#fff"/>
                    <path d="M494.4,293.06l-2.49,1.44a.36.36,0,0,0-.13.49.37.37,0,0,0,.31.17.39.39,0,0,0,.18,0l2.49-1.44a.36.36,0,0,0,.13-.48A.36.36,0,0,0,494.4,293.06Z" fill="#fff"/>
                    <path d="M469.51,307.42,467,308.85a.36.36,0,0,0-.13.49.37.37,0,0,0,.31.18.41.41,0,0,0,.18,0l2.48-1.44a.35.35,0,1,0-.35-.61Z" fill="#fff"/>
                    <path d="M506.85,285.89l-2.49,1.43a.36.36,0,0,0-.13.49.35.35,0,0,0,.31.18.34.34,0,0,0,.17-.05l2.49-1.44a.35.35,0,0,0-.35-.61Z" fill="#fff"/>
                    <path d="M488.18,296.65l-2.49,1.44a.35.35,0,0,0,.18.66.26.26,0,0,0,.17-.05l2.49-1.43a.36.36,0,0,0,.13-.49A.35.35,0,0,0,488.18,296.65Z" fill="#fff"/>
                    <path d="M457.06,314.6,454.57,316a.37.37,0,0,0-.13.49.38.38,0,0,0,.31.18.41.41,0,0,0,.18-.05l2.49-1.44a.35.35,0,0,0,.13-.48A.36.36,0,0,0,457.06,314.6Z" fill="#fff"/>
                    <path d="M437.21,296.47h0a.34.34,0,0,0-.35.36v2.81a.36.36,0,0,0,.35.36h0a.37.37,0,0,0,.36-.36v-2.81A.36.36,0,0,0,437.21,296.47Z" fill="#fff"/>
                    <path d="M437.24,303.51h0a.35.35,0,0,0-.35.35v2.82a.35.35,0,0,0,.35.35h0a.36.36,0,0,0,.35-.36v-2.81A.35.35,0,0,0,437.24,303.51Z" fill="#fff"/>
                    <path d="M437.12,275.37h0a.36.36,0,0,0-.36.36v2.81a.36.36,0,0,0,.36.36h0a.34.34,0,0,0,.35-.36v-2.81A.36.36,0,0,0,437.12,275.37Z" fill="#fff"/>
                    <path d="M437.3,317.57a.36.36,0,0,0-.35.36v2.81a.35.35,0,0,0,.36.35h0a.35.35,0,0,0,.35-.35v-2.82a.36.36,0,0,0-.36-.35Z" fill="#fff"/>
                    <path d="M437.15,282.41h0a.36.36,0,0,0-.36.35l0,2.82a.35.35,0,0,0,.35.35h0a.36.36,0,0,0,.36-.36l0-2.81A.35.35,0,0,0,437.15,282.41Z" fill="#fff"/>
                    <path d="M437.18,289.44h0a.36.36,0,0,0-.36.36l0,2.81a.35.35,0,0,0,.35.35h0a.36.36,0,0,0,.36-.35l0-2.82A.35.35,0,0,0,437.18,289.44Z" fill="#fff"/>
                    <path d="M437.27,310.54h0a.35.35,0,0,0-.35.35v2.82a.35.35,0,0,0,.35.35h0a.35.35,0,0,0,.35-.35v-2.82A.36.36,0,0,0,437.27,310.54Z" fill="#fff"/>
                    <path d="M440.63,266.62a.33.33,0,0,0-.36,0L436.14,269a.35.35,0,0,0-.18.31l0,4.75a.33.33,0,0,0,.18.3.34.34,0,0,0,.17.05.41.41,0,0,0,.18-.05l4.13-2.38a.37.37,0,0,0,.18-.31l0-4.75A.34.34,0,0,0,440.63,266.62Zm-.53.92v3.92l-3.43,2v-3.93Z" fill="#fff"/>
                    <path d="M476.78,245.66a.36.36,0,0,0-.36,0L472.29,248a.37.37,0,0,0-.18.31l0,4.75a.34.34,0,0,0,.17.3.35.35,0,0,0,.36,0l4.13-2.38a.35.35,0,0,0,.18-.31l0-4.75A.34.34,0,0,0,476.78,245.66Zm-.54.92,0,3.93-3.43,2v-3.92Z" fill="#fff"/>
                    <path d="M508,233.57a.34.34,0,0,0,.17.05.35.35,0,0,0,.18-.05l4.13-2.39a.35.35,0,0,0,.18-.3v-4.75a.37.37,0,0,0-.18-.31.38.38,0,0,0-.36,0L508,228.21a.34.34,0,0,0-.17.31v4.74A.35.35,0,0,0,508,233.57Zm3.94-6.83v3.93l-3.42,2v-3.93Z" fill="#fff"/>
                    <path d="M440.63,321.38a.38.38,0,0,0-.36,0l-4.13,2.38a.38.38,0,0,0-.18.31l0,4.75a.34.34,0,0,0,.18.31.33.33,0,0,0,.17,0,.39.39,0,0,0,.18,0l4.13-2.39a.35.35,0,0,0,.18-.31l0-4.74A.34.34,0,0,0,440.63,321.38Zm-.53.92v3.93l-3.43,2v-3.92Z" fill="#fff"/>
                    <path d="M476.78,300.42a.38.38,0,0,0-.36,0l-4.13,2.39a.35.35,0,0,0-.18.31l0,4.74a.34.34,0,0,0,.17.31.35.35,0,0,0,.36,0l4.13-2.39a.35.35,0,0,0,.18-.3l0-4.75A.36.36,0,0,0,476.78,300.42Zm-.54.92,0,3.93-3.43,2v-3.93Z" fill="#fff"/>
                    <path d="M512.51,280.59a.33.33,0,0,0-.36,0L508,283a.36.36,0,0,0-.17.31V288a.35.35,0,0,0,.18.3.34.34,0,0,0,.17.05.35.35,0,0,0,.18-.05l4.13-2.38a.37.37,0,0,0,.18-.31v-4.75A.35.35,0,0,0,512.51,280.59Zm-.53.92v3.93l-3.42,2v-3.93Z" fill="#fff"/>
                  </g>
                </g>
                <g>
                  <polygon points="510.28 215.37 510.29 218.81 436.3 261.22 436.29 257.78 510.28 215.37" fill="#fff"/>
                  <polygon points="510.26 209.01 510.27 212.44 436.28 254.86 436.27 251.43 510.26 209.01" fill="#fff"/>
                  <polygon points="465.55 227.34 465.56 230.78 436.26 247.74 436.25 244.3 465.55 227.34" fill="#fff"/>
                </g>
              </g>
              <g>
                <g opacity="0.8">
                  <path d="M320.62,257.69l-92.39,53a9.15,9.15,0,0,0-4.59,7.94l.3,132.68a3,3,0,0,0,4.57,2.63l92.1-53.12a9.11,9.11,0,0,0,4.57-7.9V260.33A3,3,0,0,0,320.62,257.69Z" fill="#455a64"/>
                </g>
                <g>
                  <g style="isolation: isolate">
                    <polygon points="286.48 302.3 301.88 314.42 301.91 326.26 250.7 355.83 250.67 343.98 260.43 324.6 269.19 331.4 266.09 341.03 270.59 332.48 286.48 302.3" fill="#fff"/>
                    <path d="M269.66,308.27c2.41-1.39,4.37-.28,4.38,2.49a9.59,9.59,0,0,1-4.35,7.54c-2.41,1.39-4.37.27-4.38-2.5A9.57,9.57,0,0,1,269.66,308.27Z" fill="#fff"/>
                  </g>
                  <g>
                    <path d="M266.58,301.42l2.67-1.53a.38.38,0,0,0,.14-.52.37.37,0,0,0-.52-.14l-2.67,1.53a.38.38,0,0,0-.14.52.39.39,0,0,0,.33.19A.34.34,0,0,0,266.58,301.42Z" fill="#fff"/>
                    <path d="M253.2,309.1l2.68-1.54A.38.38,0,0,0,256,307a.39.39,0,0,0-.52-.14l-2.68,1.54a.38.38,0,0,0,.19.71A.45.45,0,0,0,253.2,309.1Z" fill="#fff"/>
                    <path d="M239.82,316.78l2.68-1.54a.38.38,0,1,0-.38-.66l-2.68,1.54a.38.38,0,0,0,.19.71A.41.41,0,0,0,239.82,316.78Z" fill="#fff"/>
                    <path d="M246.51,312.94l2.68-1.54a.38.38,0,0,0,.14-.52.39.39,0,0,0-.52-.14l-2.68,1.54a.38.38,0,0,0,.19.71A.41.41,0,0,0,246.51,312.94Z" fill="#fff"/>
                    <path d="M259.89,305.26l2.67-1.53a.38.38,0,0,0-.38-.66l-2.67,1.53a.38.38,0,0,0-.14.52.39.39,0,0,0,.33.19A.34.34,0,0,0,259.89,305.26Z" fill="#fff"/>
                    <path d="M300,282.23l2.68-1.53a.39.39,0,0,0,.14-.52.37.37,0,0,0-.52-.14l-2.68,1.53a.38.38,0,0,0,.19.71A.32.32,0,0,0,300,282.23Z" fill="#fff"/>
                    <path d="M280,293.75l2.68-1.54a.38.38,0,0,0,.14-.52.39.39,0,0,0-.52-.14l-2.67,1.54a.38.38,0,0,0,.18.71A.41.41,0,0,0,280,293.75Z" fill="#fff"/>
                    <path d="M293.33,286.07l2.68-1.54a.38.38,0,0,0,.14-.52.39.39,0,0,0-.52-.14L293,285.41a.38.38,0,0,0,.19.71A.41.41,0,0,0,293.33,286.07Z" fill="#fff"/>
                    <path d="M306.52,278.44a.34.34,0,0,0,.19-.05l2.67-1.53a.38.38,0,0,0,.15-.52.37.37,0,0,0-.52-.14l-2.68,1.53a.38.38,0,0,0,.19.71Z" fill="#fff"/>
                    <path d="M286.64,289.91l2.68-1.54a.38.38,0,1,0-.38-.66l-2.68,1.54a.38.38,0,0,0,.19.71A.41.41,0,0,0,286.64,289.91Z" fill="#fff"/>
                    <path d="M314.91,294.55a.38.38,0,0,0-.76,0v3a.38.38,0,0,0,.76,0Z" fill="#fff"/>
                    <path d="M314.91,287a.38.38,0,0,0-.76,0v3a.38.38,0,0,0,.76,0Z" fill="#fff"/>
                    <path d="M314.91,302.08a.38.38,0,0,0-.76,0v3a.38.38,0,0,0,.76,0Z" fill="#fff"/>
                    <path d="M314.91,309.6a.38.38,0,0,0-.76,0v3a.38.38,0,0,0,.76,0Z" fill="#fff"/>
                    <path d="M314.91,317.12a.38.38,0,0,0-.76,0v3a.38.38,0,0,0,.76,0Z" fill="#fff"/>
                    <path d="M314.53,324.27a.38.38,0,0,0-.38.38v3a.38.38,0,0,0,.76,0v-3A.38.38,0,0,0,314.53,324.27Z" fill="#fff"/>
                    <path d="M314.91,279.5a.38.38,0,0,0-.76,0v3a.38.38,0,0,0,.76,0Z" fill="#fff"/>
                    <path d="M282.36,351.81l-2.67,1.53a.38.38,0,0,0-.14.52.38.38,0,0,0,.33.2.35.35,0,0,0,.19-.06l2.67-1.53a.39.39,0,0,0,.14-.52A.37.37,0,0,0,282.36,351.81Z" fill="#fff"/>
                    <path d="M242.36,374.87l-2.67,1.54a.38.38,0,0,0,.19.71.41.41,0,0,0,.19-.05l2.67-1.54a.38.38,0,0,0-.38-.66Z" fill="#fff"/>
                    <path d="M249,371l-2.67,1.53a.38.38,0,0,0-.14.52.38.38,0,0,0,.33.2.35.35,0,0,0,.19-.06l2.67-1.53a.39.39,0,0,0,.14-.52A.38.38,0,0,0,249,371Z" fill="#fff"/>
                    <path d="M302.35,340.27l-2.66,1.54a.38.38,0,0,0-.14.52.39.39,0,0,0,.33.19.34.34,0,0,0,.19,0l2.66-1.54a.37.37,0,0,0,.14-.52A.38.38,0,0,0,302.35,340.27Z" fill="#fff"/>
                    <path d="M262.36,363.34l-2.67,1.54a.38.38,0,0,0,.19.71.41.41,0,0,0,.19,0l2.67-1.54a.39.39,0,0,0,.14-.52A.38.38,0,0,0,262.36,363.34Z" fill="#fff"/>
                    <path d="M295.69,344.12,293,345.66a.38.38,0,0,0,.19.71.41.41,0,0,0,.19-.05l2.67-1.54a.39.39,0,0,0,.14-.52A.38.38,0,0,0,295.69,344.12Z" fill="#fff"/>
                    <path d="M269,359.49,266.36,361a.37.37,0,0,0-.14.52.39.39,0,0,0,.33.19.34.34,0,0,0,.19-.05l2.66-1.54a.37.37,0,0,0,.14-.52A.39.39,0,0,0,269,359.49Z" fill="#fff"/>
                    <path d="M309,336.43,306.35,338a.38.38,0,0,0,.19.71.41.41,0,0,0,.19-.05l2.67-1.54a.38.38,0,0,0,.14-.52A.39.39,0,0,0,309,336.43Z" fill="#fff"/>
                    <path d="M289,348l-2.66,1.54a.38.38,0,0,0,.19.71.45.45,0,0,0,.19,0l2.66-1.54a.38.38,0,0,0,.14-.52A.39.39,0,0,0,289,348Z" fill="#fff"/>
                    <path d="M255.69,367.18,253,368.72a.38.38,0,0,0,.2.71.34.34,0,0,0,.19-.05l2.66-1.54a.38.38,0,0,0,.14-.52A.39.39,0,0,0,255.69,367.18Z" fill="#fff"/>
                    <path d="M234.43,347.77h0a.37.37,0,0,0-.37.38v3a.38.38,0,0,0,.38.38h0a.38.38,0,0,0,.38-.38v-3A.39.39,0,0,0,234.43,347.77Z" fill="#fff"/>
                    <path d="M234.46,355.3h0a.38.38,0,0,0-.38.38v3a.38.38,0,0,0,.38.38h0a.38.38,0,0,0,.38-.38v-3A.38.38,0,0,0,234.46,355.3Z" fill="#fff"/>
                    <path d="M234.33,325.17h0a.38.38,0,0,0-.38.38l0,3a.38.38,0,0,0,.38.38h0a.38.38,0,0,0,.38-.38v-3A.39.39,0,0,0,234.33,325.17Z" fill="#fff"/>
                    <path d="M234.52,370.37a.38.38,0,0,0-.38.38l0,3a.37.37,0,0,0,.38.37h0a.38.38,0,0,0,.38-.38v-3a.4.4,0,0,0-.39-.38Z" fill="#fff"/>
                    <path d="M234.36,332.7h0a.38.38,0,0,0-.38.38v3a.38.38,0,0,0,.38.38h0a.39.39,0,0,0,.38-.39v-3A.38.38,0,0,0,234.36,332.7Z" fill="#fff"/>
                    <path d="M234.39,340.24h0a.38.38,0,0,0-.38.38v3a.4.4,0,0,0,.39.38h0a.38.38,0,0,0,.38-.38l0-3A.37.37,0,0,0,234.39,340.24Z" fill="#fff"/>
                    <path d="M234.49,362.84h0a.38.38,0,0,0-.38.38v3a.39.39,0,0,0,.38.38h0a.38.38,0,0,0,.38-.38l0-3A.38.38,0,0,0,234.49,362.84Z" fill="#fff"/>
                    <path d="M238.08,315.79a.37.37,0,0,0-.38,0l-4.42,2.55a.39.39,0,0,0-.19.33v5.09a.41.41,0,0,0,.19.33.45.45,0,0,0,.19.05.31.31,0,0,0,.19-.06l4.43-2.55a.37.37,0,0,0,.19-.33l0-5.08A.36.36,0,0,0,238.08,315.79Zm-.56,1V321l-3.67,2.12v-4.21Z" fill="#fff"/>
                    <path d="M276.81,293.34a.37.37,0,0,0-.38,0L272,295.89a.39.39,0,0,0-.19.33l0,5.09a.39.39,0,0,0,.19.33.41.41,0,0,0,.19.05.35.35,0,0,0,.19-.06l4.42-2.55a.37.37,0,0,0,.19-.33v-5.08A.36.36,0,0,0,276.81,293.34Zm-.57,1v4.21l-3.66,2.12,0-4.21Z" fill="#fff"/>
                    <path d="M310.29,280.39a.45.45,0,0,0,.19.05.38.38,0,0,0,.19-.05l4.43-2.56a.37.37,0,0,0,.19-.33v-5.08a.41.41,0,0,0-.2-.33.37.37,0,0,0-.38,0l-4.42,2.55a.39.39,0,0,0-.19.33v5.09A.41.41,0,0,0,310.29,280.39Zm4.23-7.31v4.2l-3.67,2.12v-4.21Z" fill="#fff"/>
                    <path d="M238.08,374.45a.37.37,0,0,0-.38,0L233.28,377a.39.39,0,0,0-.19.34v5.08a.4.4,0,0,0,.19.33.45.45,0,0,0,.19.05.38.38,0,0,0,.19-.05l4.43-2.56a.36.36,0,0,0,.19-.33l0-5.08A.37.37,0,0,0,238.08,374.45Zm-.56,1v4.2l-3.67,2.12v-4.21Z" fill="#fff"/>
                    <path d="M276.81,352a.37.37,0,0,0-.38,0L272,354.56a.36.36,0,0,0-.19.33l0,5.08a.37.37,0,0,0,.19.33.41.41,0,0,0,.19.05.45.45,0,0,0,.19-.05l4.42-2.56a.36.36,0,0,0,.19-.33v-5.08A.37.37,0,0,0,276.81,352Zm-.57,1v4.2l-3.66,2.12,0-4.21Z" fill="#fff"/>
                    <path d="M315.08,330.75a.37.37,0,0,0-.38,0l-4.42,2.56a.37.37,0,0,0-.19.33v5.08a.4.4,0,0,0,.19.33.45.45,0,0,0,.19.05.38.38,0,0,0,.19-.05l4.43-2.55a.39.39,0,0,0,.19-.33v-5.09A.41.41,0,0,0,315.08,330.75Zm-.56,1V336l-3.67,2.11v-4.2Z" fill="#fff"/>
                  </g>
                </g>
                <g>
                  <polygon points="315.29 355.66 315.3 359.1 234.15 406.35 234.15 402.91 315.29 355.66" fill="#fff"/>
                  <polygon points="315.27 349.31 315.29 352.73 234.14 399.99 234.13 396.56 315.27 349.31" fill="#fff"/>
                  <polygon points="315.29 368.59 315.3 372.03 234.15 419.28 234.15 415.85 315.29 368.59" fill="#fff"/>
                  <polygon points="315.27 362.24 315.29 365.67 234.14 412.92 234.13 409.49 315.27 362.24" fill="#fff"/>
                  <polygon points="281.21 401.65 281.22 405.09 234.15 432.48 234.15 429.04 281.21 401.65" fill="#fff"/>
                  <polygon points="315.27 375.44 315.29 378.87 234.14 426.12 234.13 422.69 315.27 375.44" fill="#fff"/>
                  <polygon points="255.19 377.02 255.19 380.46 234.12 392.86 234.11 389.42 255.19 377.02" fill="#fff"/>
                </g>
              </g>
              <g>
                <g opacity="0.8">
                  <path d="M339.89,393.58,415,350.24a12.16,12.16,0,0,0,6.09-10.54V250.62a4.57,4.57,0,0,0-6.85-4L339.13,290A12.17,12.17,0,0,0,333,300.55v89.08A4.57,4.57,0,0,0,339.89,393.58Z" fill="#455a64"/>
                </g>
                <g>
                  <polygon points="378.81 355.03 378.82 358.47 341.12 380.16 341.11 376.72 378.81 355.03" fill="#fff"/>
                  <polygon points="415.08 327.95 415.09 331.38 341.1 373.8 341.09 370.37 415.08 327.95" fill="#fff"/>
                  <polygon points="396.88 330.79 396.89 334.23 341.08 366.67 341.07 363.23 396.88 330.79" fill="#fff"/>
                </g>
                <g>
                  <polygon points="391.98 307.39 403.7 300.62 392.02 320.85 391.98 307.39" fill="#e0e0e0"/>
                  <polygon points="403.62 269.93 403.7 300.62 391.98 307.39 392.02 320.85 403.7 300.62 392.02 320.85 350.51 344.81 350.39 300.66 403.62 269.93" fill="#fff"/>
                </g>
              </g>
            </g>
          </g>
          <path d="M526.65,94.49c0-3.32-1.17-5.66-3-6.78l-.05,0-.07-.05c-1.93-1.08-4.58-.91-7.5.78L220.46,258.59c-5.88,3.4-10.62,11.63-10.6,18.37l0,13.78L526.68,107.9Z" fill="#af6ec3"/>
          <path d="M526.65,94.49c0-3.32-1.17-5.66-3-6.78l-.05,0-.07-.05c-1.93-1.08-4.58-.91-7.5.78L220.46,258.59c-5.88,3.4-10.62,11.63-10.6,18.37l0,13.78L526.68,107.9Z" fill="#37474f"/>
          <g opacity="0.5">
            <path d="M223.93,268.23c1.6-.93,2.9-.19,2.91,1.65a6.37,6.37,0,0,1-2.89,5c-1.61.93-2.91.19-2.92-1.65A6.36,6.36,0,0,1,223.93,268.23Z" fill="#fff"/>
            <path d="M231.85,263.65c1.6-.93,2.91-.18,2.91,1.66a6.38,6.38,0,0,1-2.89,5c-1.6.92-2.91.18-2.91-1.66A6.38,6.38,0,0,1,231.85,263.65Z" fill="#fff"/>
            <path d="M239.78,259.07c1.6-.92,2.9-.18,2.91,1.66a6.39,6.39,0,0,1-2.89,5c-1.61.93-2.91.18-2.92-1.66A6.39,6.39,0,0,1,239.78,259.07Z" fill="#fff"/>
          </g>
          <g opacity="0.8">
            <path d="M223.93,268.23c1.6-.93,2.9-.19,2.91,1.65a6.37,6.37,0,0,1-2.89,5c-1.61.93-2.91.19-2.92-1.65A6.36,6.36,0,0,1,223.93,268.23Z" fill="#fff"/>
            <path d="M231.85,263.65c1.6-.93,2.91-.18,2.91,1.66a6.38,6.38,0,0,1-2.89,5c-1.6.92-2.91.18-2.91-1.66A6.38,6.38,0,0,1,231.85,263.65Z" fill="#fff"/>
            <path d="M239.78,259.07c1.6-.92,2.9-.18,2.91,1.66a6.39,6.39,0,0,1-2.89,5c-1.61.93-2.91.18-2.92-1.66A6.39,6.39,0,0,1,239.78,259.07Z" fill="#fff"/>
          </g>
          <g>
            <path d="M654.82,241.31V236.1a7.1,7.1,0,0,0-3.23-5.59L558,176.44a2.25,2.25,0,0,0-2.36-.18h0l-3.17,2.28s2.07,1.29,2.07,1.34l.21,0v7.34l97.05,56Z" fill="#af6ec3"/>
            <path d="M654.82,241.31V236.1a7.1,7.1,0,0,0-3.23-5.59L558,176.44a2.25,2.25,0,0,0-2.36-.18h0l-3.17,2.28s2.07,1.29,2.07,1.34l.21,0v7.34l97.05,56Z" fill="#263238" opacity="0.9"/>
            <path d="M651.73,243.22l-97.05-56-.19,66.58a7.1,7.1,0,0,0,3.22,5.59l92.21,53.23-.84,1.05,1.55,2.22,3.15-2.28h0a2.29,2.29,0,0,0,.85-2l.2-70.26Z" fill="#37474f"/>
            <path d="M648.51,232.75a7.11,7.11,0,0,1,3.23,5.59v4.88L551.6,185.41v-4.88c0-2.06,1.46-2.88,3.25-1.85Z" fill="#af6ec3"/>
            <path d="M648.51,232.75a7.11,7.11,0,0,1,3.23,5.59v4.88L551.6,185.41v-4.88c0-2.06,1.46-2.88,3.25-1.85Z" fill="#37474f"/>
            <path d="M651.73,243.22l-.2,70.59c0,2.05-1.47,2.87-3.26,1.84l-93.65-54.07A7.08,7.08,0,0,1,551.4,256l.2-70.59Z" fill="#455a64"/>
            <g>
              <polygon points="584.47 262.79 584.47 265.73 556.67 249.69 556.68 246.74 584.47 262.79" fill="#af6ec3"/>
              <g style="isolation: isolate">
                <polygon points="584.52 244.54 584.52 247.49 556.72 231.44 556.73 228.5 584.52 244.54" fill="#af6ec3"/>
                <polygon points="576.2 227 576.19 229.95 556.76 218.73 556.76 215.78 576.2 227" fill="#af6ec3"/>
                <polygon points="610.76 284.34 610.76 287.28 574.99 266.63 575 263.69 610.76 284.34" fill="#af6ec3"/>
                <polygon points="619.71 276.74 619.7 279.68 575.03 253.89 575.04 250.94 619.71 276.74" fill="#af6ec3"/>
                <polygon points="597.26 231.89 597.25 234.84 575.12 222.06 575.13 219.11 597.26 231.89" fill="#af6ec3"/>
                <polygon points="629.61 264.2 629.61 267.15 575.08 235.67 575.09 232.72 629.61 264.2" fill="#af6ec3"/>
                <polygon points="646.58 286.74 646.57 289.68 575.04 248.39 575.05 245.44 646.58 286.74" fill="#af6ec3"/>
              </g>
              <polygon points="646.67 254.9 646.66 257.84 575.14 216.55 575.14 213.6 646.67 254.9" fill="#af6ec3"/>
              <polygon points="584.62 212.71 584.61 215.65 556.81 199.6 556.82 196.66 584.62 212.71" fill="#af6ec3"/>
            </g>
            <g>
              <polygon points="584.47 262.79 584.47 265.73 556.67 249.69 556.68 246.74 584.47 262.79" fill="#fff"/>
              <g style="isolation: isolate">
                <polygon points="584.52 244.54 584.52 247.49 556.72 231.44 556.73 228.5 584.52 244.54" fill="#fff"/>
                <polygon points="576.2 227 576.19 229.95 556.76 218.73 556.76 215.78 576.2 227" fill="#fff"/>
                <polygon points="610.76 284.34 610.76 287.28 574.99 266.63 575 263.69 610.76 284.34" fill="#fff"/>
                <polygon points="619.71 276.74 619.7 279.68 575.03 253.89 575.04 250.94 619.71 276.74" fill="#fff"/>
                <polygon points="597.26 231.89 597.25 234.84 575.12 222.06 575.13 219.11 597.26 231.89" fill="#fff"/>
                <polygon points="629.61 264.2 629.61 267.15 575.08 235.67 575.09 232.72 629.61 264.2" fill="#fff"/>
                <polygon points="646.58 286.74 646.57 289.68 575.04 248.39 575.05 245.44 646.58 286.74" fill="#fff"/>
              </g>
              <polygon points="646.67 254.9 646.66 257.84 575.14 216.55 575.14 213.6 646.67 254.9" fill="#fff"/>
              <polygon points="584.62 212.71 584.61 215.65 556.81 199.6 556.82 196.66 584.62 212.71" fill="#fff"/>
            </g>
          </g>
          <g>
            <path d="M159.05,525.65v-.32l0-4.88a7.13,7.13,0,0,1,3.24-5.59l93.65-54.07a2.21,2.21,0,0,1,2.35-.18h0l3.16,2.29s-2.06,1.29-2.06,1.34l-.21,0v7.34l-97.05,56Z" fill="#af6ec3"/>
            <path d="M159.05,525.65v-.32l0-4.88a7.13,7.13,0,0,1,3.24-5.59l93.65-54.07a2.21,2.21,0,0,1,2.35-.18h0l3.16,2.29s-2.06,1.29-2.06,1.34l-.21,0v7.34l-97.05,56Z" fill="#263238" opacity="0.9"/>
            <path d="M162.14,527.56l97.05-56,.19,66.58a7.11,7.11,0,0,1-3.23,5.58l-92.21,53.24.85,1.05-1.55,2.21-3.15-2.27h0a2.3,2.3,0,0,1-.85-2l-.2-70.27Z" fill="#37474f"/>
            <path d="M165.36,517.09a7.1,7.1,0,0,0-3.23,5.59v4.88l100.13-57.81,0-4.88c0-2.05-1.45-2.88-3.24-1.85Z" fill="#af6ec3"/>
            <path d="M165.36,517.09a7.1,7.1,0,0,0-3.23,5.59v4.88l100.13-57.81,0-4.88c0-2.05-1.45-2.88-3.24-1.85Z" fill="#37474f"/>
            <path d="M162.14,527.56l.2,70.59c0,2.06,1.47,2.88,3.25,1.85l93.65-54.07a7.11,7.11,0,0,0,3.23-5.59l-.2-70.59Z" fill="#455a64"/>
            <g>
              <polygon points="167.34 583.5 167.35 586.45 195.14 570.4 195.13 567.45 167.34 583.5" fill="#af6ec3"/>
              <polygon points="167.29 565.26 167.29 568.2 195.09 552.15 195.08 549.21 167.29 565.26" fill="#af6ec3"/>
              <polygon points="167.29 552.71 167.29 555.66 186.73 544.44 186.72 541.5 167.29 552.71" fill="#af6ec3"/>
              <polygon points="186.78 578.09 186.79 581.02 222.56 560.38 222.55 557.44 186.78 578.09" fill="#af6ec3"/>
              <polygon points="186.87 565.45 186.88 568.4 231.55 542.61 231.55 539.66 186.87 565.45" fill="#af6ec3"/>
              <polygon points="185.24 534.52 185.25 537.46 207.38 524.68 207.37 521.74 185.24 534.52" fill="#af6ec3"/>
              <polygon points="186.91 546.45 186.92 549.4 241.44 517.92 241.43 514.97 186.91 546.45" fill="#af6ec3"/>
              <polygon points="186.87 560.16 186.88 563.11 258.41 521.81 258.4 518.86 186.87 560.16" fill="#af6ec3"/>
              <polygon points="185.15 529.24 185.16 532.19 256.68 490.89 256.68 487.94 185.15 529.24" fill="#af6ec3"/>
              <polygon points="167.2 533.42 167.2 536.36 195 520.32 194.99 517.37 167.2 533.42" fill="#af6ec3"/>
            </g>
            <g>
              <polygon points="167.34 583.5 167.35 586.45 195.14 570.4 195.13 567.45 167.34 583.5" fill="#e6e6e6"/>
              <polygon points="167.29 565.26 167.29 568.2 195.09 552.15 195.08 549.21 167.29 565.26" fill="#e6e6e6"/>
              <polygon points="167.29 552.71 167.29 555.66 186.73 544.44 186.72 541.5 167.29 552.71" fill="#e6e6e6"/>
              <polygon points="186.78 578.09 186.79 581.02 222.56 560.38 222.55 557.44 186.78 578.09" fill="#e6e6e6"/>
              <polygon points="186.87 565.45 186.88 568.4 231.55 542.61 231.55 539.66 186.87 565.45" fill="#e6e6e6"/>
              <polygon points="185.24 534.52 185.25 537.46 207.38 524.68 207.37 521.74 185.24 534.52" fill="#e6e6e6"/>
              <polygon points="186.91 546.45 186.92 549.4 241.44 517.92 241.43 514.97 186.91 546.45" fill="#e6e6e6"/>
              <polygon points="186.87 560.16 186.88 563.11 258.41 521.81 258.4 518.86 186.87 560.16" fill="#e6e6e6"/>
              <polygon points="185.15 529.24 185.16 532.19 256.68 490.89 256.68 487.94 185.15 529.24" fill="#e6e6e6"/>
              <polygon points="167.2 533.42 167.2 536.36 195 520.32 194.99 517.37 167.2 533.42" fill="#e6e6e6"/>
            </g>
          </g>
          <g>
            <path d="M437.65,438.42l-.11-41.31a6,6,0,0,1,2.75-4.77l57.09-33a2,2,0,0,1,1.9-.21L495.72,357h0l0,0h0a2,2,0,0,0-1.92.21l-57.08,33a6.06,6.06,0,0,0-2.76,4.76l.12,41.32a1.94,1.94,0,0,0,.83,1.79l3.56,2.12h0A2,2,0,0,1,437.65,438.42Z" fill="#455a64"/>
            <path d="M500.14,361a2,2,0,0,0-.66-1.66l-.1-.07a.33.33,0,0,0-.1-.06,2,2,0,0,0-1.9.21l-57.09,33a6,6,0,0,0-2.75,4.77l.11,41.31a2,2,0,0,0,.78,1.75,1.92,1.92,0,0,0,2-.17l57.08-32.95a6,6,0,0,0,2.75-4.77Z" fill="#455a64"/>
            <path d="M437.65,438.42l-.11-41.31a6,6,0,0,1,2.75-4.77l57.09-33a2,2,0,0,1,1.9-.21L495.72,357h0l0,0h0a2,2,0,0,0-1.92.21l-57.08,33a6.06,6.06,0,0,0-2.76,4.76l.12,41.32a1.94,1.94,0,0,0,.83,1.79l3.56,2.12h0A2,2,0,0,1,437.65,438.42Z" opacity="0.3"/>
            <g>
              <polygon points="462.48 396.99 462.49 400.11 450.88 411.97 462.52 410.42 462.53 413.55 447.84 415.35 447.83 412.12 462.48 396.99" fill="#f5f5f5"/>
              <polygon points="477.37 378.14 466.67 419.82 463.82 421.47 474.52 379.79 477.37 378.14" fill="#f5f5f5"/>
              <polygon points="478.39 387.81 493.07 386 493.08 389.23 478.44 404.36 478.43 401.24 490.07 389.35 478.4 390.93 478.39 387.81" fill="#f5f5f5"/>
            </g>
          </g>
          <path d="M573.5,58.13c-4.29-2.47-7.92-1.26-9.07,2.59a12.75,12.75,0,0,0-4.63-5.16c-3.37-1.94-6.1-.38-6.11,3.48v1.77l-4.51-2.6c-2.36-1.36-4.27-.27-4.28,2.44A9.37,9.37,0,0,0,549.14,68l38.24,22.08c2.35,1.36,4.27.27,4.28-2.44a9.37,9.37,0,0,0-4.25-7.36l-4.52-2.61V74.42C582.92,68.43,578.71,61.14,573.5,58.13Z" fill="#e6e6e6"/>
          <g>
            <path d="M627,116.89c-11.31-6.53-20.87-3.34-23.91,6.81-2.92-5.68-7.3-10.76-12.21-13.6-8.86-5.11-16.08-1-16.1,9.18l0,4.67-11.89-6.86c-6.21-3.59-11.26-.7-11.28,6.43s5,15.81,11.2,19.4L663.61,201.1c6.21,3.59,11.26.72,11.28-6.42s-5-15.83-11.21-19.41l-11.89-6.87,0-8.6C651.86,144,640.76,124.81,627,116.89Z" fill="#e6e6e6"/>
            <g>
              <polygon points="607.99 137.26 620.15 159.5 612.81 155.26 612.76 171.69 603.04 166.08 603.09 149.65 595.75 145.41 607.99 137.26" fill="#455a64"/>
              <polygon points="612.82 173.99 612.8 180.28 603.08 174.66 603.1 168.38 612.82 173.99" fill="#455a64"/>
              <polygon points="612.82 182.8 612.8 185.94 603.08 180.33 603.1 177.19 612.82 182.8" fill="#455a64"/>
              <polygon points="612.82 188.05 612.8 189.95 603.08 184.34 603.1 182.44 612.82 188.05" fill="#455a64"/>
            </g>
            <g opacity="0.5">
              <polygon points="607.99 137.26 620.15 159.5 612.81 155.26 612.76 171.69 603.04 166.08 603.09 149.65 595.75 145.41 607.99 137.26" fill="#fff"/>
              <polygon points="612.82 173.99 612.8 180.28 603.08 174.66 603.1 168.38 612.82 173.99" fill="#fff"/>
              <polygon points="612.82 182.8 612.8 185.94 603.08 180.33 603.1 177.19 612.82 182.8" fill="#fff"/>
              <polygon points="612.82 188.05 612.8 189.95 603.08 184.34 603.1 182.44 612.82 188.05" fill="#fff"/>
            </g>
          </g>
          <g>
            <path d="M305.62,30c11.31-6.53,20.87-3.33,23.9,6.82,2.93-5.69,7.31-10.77,12.22-13.6,8.86-5.12,16.07-1,16.1,9.18l0,4.67,11.89-6.87C376,26.65,381,29.53,381,36.67s-5,15.81-11.2,19.39L269.05,114.25c-6.21,3.58-11.27.72-11.29-6.42S262.76,92,269,88.42l11.9-6.87,0-8.6C280.8,57.17,291.89,38,305.62,30Z" fill="#e6e6e6"/>
            <g>
              <g>
                <polygon points="323.45 114.51 335.61 92.27 328.27 96.51 328.22 80.07 318.5 85.68 318.55 102.12 311.21 106.36 323.45 114.51" fill="#455a64"/>
                <polygon points="328.27 77.78 328.26 71.49 318.54 77.1 318.56 83.38 328.27 77.78" fill="#455a64"/>
                <polygon points="328.27 68.96 328.26 65.82 318.54 71.43 318.56 74.57 328.27 68.96" fill="#455a64"/>
                <polygon points="328.27 63.72 328.26 61.82 318.54 67.43 318.56 69.33 328.27 63.72" fill="#455a64"/>
              </g>
              <g opacity="0.5">
                <polygon points="323.45 114.51 335.61 92.27 328.27 96.51 328.22 80.07 318.5 85.68 318.55 102.12 311.21 106.36 323.45 114.51" fill="#fff"/>
                <polygon points="328.27 77.78 328.26 71.49 318.54 77.1 318.56 83.38 328.27 77.78" fill="#fff"/>
                <polygon points="328.27 68.96 328.26 65.82 318.54 71.43 318.56 74.57 328.27 68.96" fill="#fff"/>
                <polygon points="328.27 63.72 328.26 61.82 318.54 67.43 318.56 69.33 328.27 63.72" fill="#fff"/>
              </g>
            </g>
          </g>
          <g>
            <g>
              <path d="M575.12,403.12c-9.74,6.77-20.71,11.45-28.85,20.52-15.19,16.94-15.55,44.19-3.61,63.57s34.13,31,56.73,33.68c23.71,2.8,48.59-3.76,67.19-18.72S697,463.82,697,439.94s-12.23-47.65-32.23-60.69c-18.25-11.9-44.46-15.29-62.77-1.68-9.26,6.88-15.43,17-24.66,23.95C576.62,402.07,575.87,402.6,575.12,403.12Z" fill="#455a64"/>
              <path d="M575.12,403.12c-9.74,6.77-20.71,11.45-28.85,20.52-15.19,16.94-15.55,44.19-3.61,63.57s34.13,31,56.73,33.68c23.71,2.8,48.59-3.76,67.19-18.72S697,463.82,697,439.94s-12.23-47.65-32.23-60.69c-18.25-11.9-44.46-15.29-62.77-1.68-9.26,6.88-15.43,17-24.66,23.95C576.62,402.07,575.87,402.6,575.12,403.12Z" fill="#fff" opacity="0.3"/>
              <path d="M579.09,502.38c0-.17,0-.33.07-.49a25.64,25.64,0,0,1,20.78-21.36,80.94,80.94,0,0,0,26.61-10.2c5.82-3.51,11.31-7.82,17.84-9.73a29,29,0,0,1,19.22,1.12c-5.48-5.76-14.88-8.29-22.4-5.69,5.2-8,9.78-16.53,11.57-25.87s.52-19.58-5.11-27.24a27.42,27.42,0,0,0-42.32-2.27c-5.57,6.1-8.72,14.69-12.38,22.09-2.63,5.32-5.35,10.77-9.68,14.82-6.54,6.12-15.95,8.33-22.73,14.18-7.69,6.64-11,17.25-11,27.41a80.7,80.7,0,0,0,3,20.26,76.92,76.92,0,0,0,27.81,17A30.18,30.18,0,0,1,579.09,502.38Z" opacity="0.1"/>
              <path d="M684.29,436.67A69.69,69.69,0,0,0,624.84,369a49.09,49.09,0,0,0-6.72,1.13,68,68,0,0,1,64.33,66.56c.43,22.22-10.44,44.87-29.08,60.59-14.61,12.32-34,20.48-55.35,23.42.46.06.91.13,1.37.18,1.92.23,3.84.38,5.77.49,19-3.68,36.11-11.49,49.4-22.69C673.62,482.62,684.73,459.43,684.29,436.67Z" fill="#fff"/>
            </g>
            <g>
              <g>
                <g>
                  <path d="M554.26,495A68,68,0,0,1,555.44,506l2.64-1a6.78,6.78,0,0,1,7.3,1.66l.13.14a2.66,2.66,0,0,0,3.66.16h0a2.68,2.68,0,0,0,.91-1.91l.35-11.2Z" fill="#ffaa83"/>
                  <path d="M564.41,536.56c-5.46,5.84-15.51,10.94-22.81,6l.82,1.86c7.3,5,17.35-.12,22.81-6s1.92-9.88,6.83-15.06a18,18,0,0,0,4.25-6.31c-.22-.56-.43-1.29-.69-2.12a22.58,22.58,0,0,1-4.38,6.57C566.33,526.68,569.87,530.72,564.41,536.56Z" fill="#263238"/>
                  <path d="M572.93,508.83a10.46,10.46,0,0,1-1.71-4,2.3,2.3,0,0,0-1.09-1.63l0,1.88a2.66,2.66,0,0,1-4.57,1.75l-.13-.14a6.78,6.78,0,0,0-7.3-1.66l-2.68,1a2.05,2.05,0,0,0-1.33,2c.17,7.66-3.4,17.83-7.15,23.41-3.86,1.6-7.19,6.86-5.49,10.71l.17.38c7.3,5,17.35-.12,22.81-6s1.92-9.88,6.83-15.06a22.58,22.58,0,0,0,4.38-6.57A23.63,23.63,0,0,0,572.93,508.83Z" fill="#37474f"/>
                  <g>
                    <path d="M562.25,519.88a.94.94,0,0,0,.86-1.66,10.66,10.66,0,0,0-10.48,0c-.17.6-.34,1.2-.52,1.8A10.26,10.26,0,0,1,562.25,519.88Z" fill="#fff"/>
                    <path d="M563.6,515.74a.93.93,0,0,0,.86-1.65,11.19,11.19,0,0,0-10.91.08c-.11.63-.24,1.25-.38,1.88C556.35,514.37,559.56,513.7,563.6,515.74Z" fill="#fff"/>
                    <path d="M560.78,524a.94.94,0,0,0,.86-1.66,10.67,10.67,0,0,0-10.27-.1c-.23.65-.47,1.29-.72,1.91A10.27,10.27,0,0,1,560.78,524Z" fill="#fff"/>
                    <path d="M546.92,531.43c-3.86,1.6-7.19,6.86-5.49,10.71l.17.38c7.19,4.91,17,0,22.56-5.7C559.56,527.81,550,530.05,546.92,531.43Z" fill="#fff"/>
                    <path d="M559.16,528a.92.92,0,0,0,1.24-.42.91.91,0,0,0-.38-1.23,10.63,10.63,0,0,0-10.28-.1c-.33.72-.66,1.4-1,2.06C551.92,526.65,555.13,526,559.16,528Z" fill="#fff"/>
                  </g>
                </g>
                <g>
                  <path d="M542.78,517.21a68,68,0,0,1-3.39,10.62l2.81.16a6.81,6.81,0,0,1,6,4.47l.06.18a2.65,2.65,0,0,0,3.28,1.63h0a2.65,2.65,0,0,0,1.6-1.39l4.84-10.1Z" fill="#ffaa83"/>
                  <path d="M535.28,559.38c-7.35,3.14-18.61,3.75-23.28-3.75v2c4.67,7.5,15.93,6.89,23.28,3.75s5.74-8.27,12.33-11a17.77,17.77,0,0,0,6.43-4c0-.6.13-1.35.23-2.22a22.3,22.3,0,0,1-6.66,4.24C541,551.11,542.63,556.24,535.28,559.38Z" fill="#263238"/>
                  <path d="M554.27,537.44a10.35,10.35,0,0,1,0-4.33,2.3,2.3,0,0,0-.34-1.92l-.81,1.69a2.65,2.65,0,0,1-4.88-.24l-.06-.18a6.81,6.81,0,0,0-6-4.47l-2.85-.16a2,2,0,0,0-2,1.27c-2.94,7.07-10.31,14.93-16,18.53-4.17-.1-9.34,3.37-9.34,7.58v.42c4.67,7.5,15.93,6.89,23.28,3.75s5.74-8.27,12.33-11a22.3,22.3,0,0,0,6.66-4.24A24.15,24.15,0,0,0,554.27,537.44Z" fill="#37474f"/>
                  <g>
                    <path d="M540,543.25a.92.92,0,0,0,1.3.11.91.91,0,0,0,.15-1.28,10.65,10.65,0,0,0-9.6-4.22q-.58.74-1.2,1.44A10.27,10.27,0,0,1,540,543.25Z" fill="#fff"/>
                    <path d="M542.94,540a.93.93,0,0,0,1.45-1.17,11.2,11.2,0,0,0-10-4.32c-.35.53-.72,1-1.1,1.57C536.86,535.82,540.07,536.5,542.94,540Z" fill="#fff"/>
                    <path d="M537,546.42a.94.94,0,0,0,1.46-1.17,10.62,10.62,0,0,0-9.35-4.23c-.47.5-1,1-1.44,1.45A10.27,10.27,0,0,1,537,546.42Z" fill="#fff"/>
                    <path d="M521.34,547.63c-4.17-.1-9.34,3.37-9.34,7.58v.42c4.6,7.39,15.59,6.9,22.94,3.88C534.38,549.41,524.68,547.59,521.34,547.63Z" fill="#fff"/>
                    <path d="M533.92,549.45a.94.94,0,0,0,1.46-1.17,10.63,10.63,0,0,0-9.37-4.23c-.59.52-1.17,1-1.75,1.47C527.85,545.27,531.05,546,533.92,549.45Z" fill="#fff"/>
                  </g>
                </g>
                <path d="M586,421.59l-36.8,20.5a18.23,18.23,0,0,0-9,19.26l7.14,38.46-5.86,18.61c5.06,6.77,16.66,7.12,16.66,7.12,6.47-13,11.22-18.49,14.89-29.37s6.13-18.37,6.13-18.37l30.56-8.36a36.2,36.2,0,0,0,26.47-30.8c.52-4.63.55-7.78.55-7.78Z" fill="#455a64"/>
                <path d="M586.25,431.93a17.35,17.35,0,0,0,4.11,11.21l-26,16.26a18.67,18.67,0,0,0-7.95,10.36l-9.19,30.05,8.29-33.47a15.19,15.19,0,0,1,6.75-9.26l24-14.81C583.82,436.14,586.25,431.93,586.25,431.93Z" opacity="0.2"/>
              </g>
              <g>
                <g>
                  <path d="M558.49,381.82l-5.15,5c-5.29-6.75-12.39-11.32-18.6-20.79-1.78-2.26-1.6-6.78-2.81-9.08-1-1.81-2.62-4.52-3.32-6a1,1,0,0,0-1.48-.45c-1.77,1.29-.84,4.35.09,7.58,1.09,3.77-4.6-1.35-5.37-2.21-3.62-3.36-6.72-11.6-9.18-10.78s-.51,4.92-.51,4.92c-2.27.48-1.41,4.1-1.41,4.1-1.35,2.37-1,6,1.79,9.4,2,2.47,7.41,5.84,10.22,7.51a9.09,9.09,0,0,1,2.93,2.76L543.36,400a10.72,10.72,0,0,0,15.31,2.59l9.6-7.18Z" fill="#ffaa83"/>
                  <path d="M588.4,358.64c-9.79-.43-23.07,15.46-30.56,22.94.58,9.15,10.43,15.17,10.43,15.17A215.56,215.56,0,0,0,588.4,381Z" fill="#af6ec3"/>
                  <path d="M588.4,358.64c-9.79-.43-23.07,15.46-30.56,22.94.58,9.15,10.43,15.17,10.43,15.17A215.56,215.56,0,0,0,588.4,381Z" fill="#57547f"/>
                </g>
                <path d="M637.25,433.73c-6.53,6.27-37.88,7.42-53.88-7.81,1.54-10.75,1-22.26,0-33.65s-7.68-31.31,5-33.63c17-3.31,28.07-3.06,39.42,3.34C639.93,382.16,638.27,412.36,637.25,433.73Z" fill="#af6ec3"/>
                <path d="M637.25,433.73c-6.53,6.27-37.88,7.42-53.88-7.81,1.54-10.75,1-22.26,0-33.65s-7.68-31.31,5-33.63c17-3.31,28.07-3.06,39.42,3.34C639.93,382.16,638.27,412.36,637.25,433.73Z" fill="#af6ec3"/>
                <path d="M637.25,433.73c-6.53,6.27-37.88,7.42-53.88-7.81,1.54-10.75,1-22.26,0-33.65s-7.68-31.31,5-33.63c17-3.31,28.07-3.06,39.42,3.34C639.93,382.16,638.27,412.36,637.25,433.73Z" fill="#57547f"/>
                <g>
                  <path d="M619.7,333a4.53,4.53,0,0,0-2.27-2.37,3.44,3.44,0,0,0-.67-.26,4.25,4.25,0,0,0-3.78,1.27,7.33,7.33,0,0,0-1.84,3.66,28.38,28.38,0,0,0-.46,4.12,49.74,49.74,0,0,1-1.14,7.27,9.26,9.26,0,0,1-4.7,6.15l-.17.08a28.33,28.33,0,0,1-11,2.92V360c-3,4.13-3.87,12,4.11,9.65S611,362,611,356.76c0-2.2.11-5,.17-7.57.07-3.4.14-6.26.14-6.26a4.47,4.47,0,0,0,2.91,1.53,4.09,4.09,0,0,0,1.53-.08,5.72,5.72,0,0,0,3.41-2.92,10.42,10.42,0,0,0,1.09-4.44A8.77,8.77,0,0,0,619.7,333Z" fill="#ffaa83"/>
                  <path d="M617.11,318.57a9.85,9.85,0,0,0-6.28-3.33l-32.8,3c-3.78,8-.76,13.32-.76,13.32-.51,12.22-.94,20,4.44,22.57,2.93,1.4,7.38,2,12,1.66a28.33,28.33,0,0,0,11-2.92l.18-.09a9.28,9.28,0,0,0,4.7-6.18,50.34,50.34,0,0,0,1.13-7.23,28.38,28.38,0,0,1,.46-4.12,7.33,7.33,0,0,1,1.84-3.66,4.25,4.25,0,0,1,3.78-1.27,3.44,3.44,0,0,1,.67.26C618.37,325.19,618.64,320.48,617.11,318.57Z" fill="#37474f"/>
                  <path d="M605.1,319.51a11.33,11.33,0,0,0,.43,6.87,48.08,48.08,0,0,1,2.08,6.67,10.79,10.79,0,0,1-.9,6.74,7.9,7.9,0,0,1-5.23,4.17c-3.52.75-7-1.31-10.5-2a14.69,14.69,0,0,0-9.87,1.74,1.71,1.71,0,0,1-2.58-1.36c-.42-7-.41-18.06.63-23.24Z" fill="#ffaa83"/>
                  <path d="M579.71,313.14l-4.07-2.84a8.62,8.62,0,0,0,1.56,8,12.86,12.86,0,0,0,7.18,4.23,27.26,27.26,0,0,0,8.46.39,63.14,63.14,0,0,0,12.2-2.23,9.82,9.82,0,0,0,4.8-2.52,6.34,6.34,0,0,0,.25-7.47,9.54,9.54,0,0,0-6.74-3.91,26.18,26.18,0,0,0-8.12.64,24.74,24.74,0,0,1-8.12.59c-2.69-.41-5.38-1.87-6.54-4.34C578.27,307.44,579.71,313.14,579.71,313.14Z" fill="#37474f"/>
                  <g>
                    <polygon points="590.01 331.98 584.02 339.23 589.51 341.17 590.01 331.98" fill="#ffaa83"/>
                    <path d="M594.53,344.77l-4.62,1.42a2.86,2.86,0,0,0,3.12,1.43A2.56,2.56,0,0,0,594.53,344.77Z" fill="#f28f8f"/>
                    <path d="M594.53,344.77l-4.62,1.42a2.86,2.86,0,0,0,3.12,1.43A2.56,2.56,0,0,0,594.53,344.77Z" opacity="0.3"/>
                    <path d="M591.51,347.53a2.65,2.65,0,0,0,1.52.09,2.33,2.33,0,0,0,1.5-2.09,2.8,2.8,0,0,0-1.79.33A2.75,2.75,0,0,0,591.51,347.53Z" fill="#f28f8f"/>
                    <path d="M598.14,333.57a1.64,1.64,0,1,1-1.55-1.73A1.65,1.65,0,0,1,598.14,333.57Z" fill="#263238"/>
                    <path d="M584.4,332.3a1.65,1.65,0,1,1-1.56-1.73A1.64,1.64,0,0,1,584.4,332.3Z" fill="#263238"/>
                    <path d="M583.15,325.69,579.38,328a2.32,2.32,0,0,1,.85-2.54A2.77,2.77,0,0,1,583.15,325.69Z" fill="#263238"/>
                    <path d="M597.21,326.24l3.5,2.71a2.33,2.33,0,0,0-.57-2.61A2.78,2.78,0,0,0,597.21,326.24Z" fill="#263238"/>
                  </g>
                  <path d="M606.89,352.69a10.45,10.45,0,0,0,1.91-4,9.3,9.3,0,0,1-4,4.11l-.17.08a28.33,28.33,0,0,1-11,2.92v2.81a27.65,27.65,0,0,0,6.5-1.36A14.66,14.66,0,0,0,606.89,352.69Z" opacity="0.2"/>
                </g>
                <g>
                  <path d="M611.93,447.25a1.37,1.37,0,0,1,0,.49v0a1.5,1.5,0,0,1-.19.38s0,0,0,0a2.33,2.33,0,0,1-.34.37s0,0,0,0a2.7,2.7,0,0,1-.49.36l-26.93,15.64a4.09,4.09,0,0,1-.77.34l-.3.09-.39.1-.48.08-.11,0-.66,0h-.11c-.22,0-.43,0-.65,0h-.1c-.21,0-.42-.06-.63-.11l-.11,0a4.81,4.81,0,0,1-.54-.16l-.1,0a4.62,4.62,0,0,1-.59-.29l-44.43-25.64a3.39,3.39,0,0,1-.5-.36,1.79,1.79,0,0,1-.13-.14,1.86,1.86,0,0,1-.23-.26A1.29,1.29,0,0,1,533,438a1.58,1.58,0,0,1-.13-.26,1.13,1.13,0,0,1,0-.18,1.09,1.09,0,0,1,0-.25v1.58a1.18,1.18,0,0,0,0,.25,1.13,1.13,0,0,0,0,.18,1.19,1.19,0,0,0,.13.25.91.91,0,0,0,.09.17,2.68,2.68,0,0,0,.23.26c.05,0,.08.09.13.13a2.79,2.79,0,0,0,.5.36l44.43,25.65a3.56,3.56,0,0,0,.59.28l.1,0a4.84,4.84,0,0,0,.54.17l.11,0c.21,0,.42.08.63.1l.1,0c.22,0,.43,0,.65,0h.11l.66,0,.11,0,.48-.08.39-.1.3-.09a4.86,4.86,0,0,0,.77-.34l26.93-15.65a3.25,3.25,0,0,0,.49-.35l0,0a2.86,2.86,0,0,0,.34-.37s0,0,0,0a1.69,1.69,0,0,0,.19-.38v0a1,1,0,0,0,0-.35h0v-1.71Z" fill="#e0e0e0"/>
                  <path d="M611.93,447.25a1.37,1.37,0,0,1,0,.49v0a1.5,1.5,0,0,1-.19.38s0,0,0,0a2.33,2.33,0,0,1-.34.37s0,0,0,0a2.7,2.7,0,0,1-.49.36l-26.93,15.64a4.09,4.09,0,0,1-.77.34l-.3.09-.39.1-.48.08-.11,0-.66,0h-.11c-.22,0-.43,0-.65,0h-.1c-.21,0-.42-.06-.63-.11l-.11,0a4.81,4.81,0,0,1-.54-.16l-.1,0a4.62,4.62,0,0,1-.59-.29l-44.43-25.64a3.39,3.39,0,0,1-.5-.36,1.79,1.79,0,0,1-.13-.14,1.86,1.86,0,0,1-.23-.26A1.29,1.29,0,0,1,533,438a1.58,1.58,0,0,1-.13-.26,1.13,1.13,0,0,1,0-.18,1.09,1.09,0,0,1,0-.25v1.58a1.18,1.18,0,0,0,0,.25,1.13,1.13,0,0,0,0,.18,1.19,1.19,0,0,0,.13.25.91.91,0,0,0,.09.17,2.68,2.68,0,0,0,.23.26c.05,0,.08.09.13.13a2.79,2.79,0,0,0,.5.36l44.43,25.65a3.56,3.56,0,0,0,.59.28l.1,0a4.84,4.84,0,0,0,.54.17l.11,0c.21,0,.42.08.63.1l.1,0c.22,0,.43,0,.65,0h.11l.66,0,.11,0,.48-.08.39-.1.3-.09a4.86,4.86,0,0,0,.77-.34l26.93-15.65a3.25,3.25,0,0,0,.49-.35l0,0a2.86,2.86,0,0,0,.34-.37s0,0,0,0a1.69,1.69,0,0,0,.19-.38v0a1,1,0,0,0,0-.35h0v-1.71Z" opacity="0.2"/>
                  <path d="M532.84,437.76a1.58,1.58,0,0,0,.13.26,1.29,1.29,0,0,0,.09.16,1.86,1.86,0,0,0,.23.26,1.79,1.79,0,0,0,.13.14,3.39,3.39,0,0,0,.5.36l44.43,25.64a4.62,4.62,0,0,0,.59.29l.1,0a4.81,4.81,0,0,0,.54.16l.11,0c.21.05.42.08.63.11h.1c.22,0,.43,0,.65,0h.11l.66,0,.11,0,.48-.08.39-.1.3-.09a4.09,4.09,0,0,0,.77-.34l26.93-15.64a2.7,2.7,0,0,0,.49-.36s0,0,0,0a2.33,2.33,0,0,0,.34-.37s0,0,0,0a1.5,1.5,0,0,0,.19-.38v0a1.37,1.37,0,0,0,0-.49,2,2,0,0,0-1.14-1.52l-44.43-25.65a6.1,6.1,0,0,0-5.52,0l-26.93,15.65a1.94,1.94,0,0,0-1.14,1.6,1.09,1.09,0,0,0,0,.25A1.13,1.13,0,0,0,532.84,437.76Z" fill="#e0e0e0"/>
                  <path d="M536.54,437.33l43.16,24.92.17.08.09,0a2.56,2.56,0,0,0,.34.1l.24.05.16,0,.42,0h0l.44,0,.28,0,.35-.1a1,1,0,0,0,.3-.12l13.89-8.07-44.59-25.74Z" fill="#e0e0e0"/>
                  <path d="M581.17,462.55h0Z" fill="#263238"/>
                  <path d="M577.6,430.48l-8.12,4.77a.82.82,0,0,0,0,1.42l12.14,7a1.35,1.35,0,0,0,1.36,0l8.11-4.77a.82.82,0,0,0,0-1.42l-12.14-7A1.35,1.35,0,0,0,577.6,430.48Z" fill="#e0e0e0"/>
                  <path d="M536.54,437.33l43.16,24.92.17.08.09,0a2.56,2.56,0,0,0,.34.1l.24.05.16,0,.42,0h0l.44,0,.28,0,.35-.1a1,1,0,0,0,.3-.12l13.89-8.07-44.59-25.74Z" opacity="0.4"/>
                  <path d="M577.6,430.48l-8.12,4.77a.82.82,0,0,0,0,1.42l12.14,7a1.35,1.35,0,0,0,1.36,0l8.11-4.77a.82.82,0,0,0,0-1.42l-12.14-7A1.35,1.35,0,0,0,577.6,430.48Z" opacity="0.4"/>
                </g>
                <g>
                  <path d="M580.85,463l-4.6-29.24a5.36,5.36,0,0,0-2.62-3.83l-44.73-26a1.33,1.33,0,0,0-1.19-.08h0l-1.06.53.35.13a1.32,1.32,0,0,0-.11.8l4.6,29.24a5.38,5.38,0,0,0,2.62,3.83l44.73,26a1.45,1.45,0,0,0,.29.11l0,.44,1-.51h0A1.34,1.34,0,0,0,580.85,463Z" fill="#e0e0e0"/>
                  <path d="M580.85,463l-4.6-29.24a5.36,5.36,0,0,0-2.62-3.83l-44.73-26a1.33,1.33,0,0,0-1.19-.08h0l-1.06.53.35.13a1.32,1.32,0,0,0-.11.8l4.6,29.24a5.38,5.38,0,0,0,2.62,3.83l44.73,26a1.45,1.45,0,0,0,.29.11l0,.44,1-.51h0A1.34,1.34,0,0,0,580.85,463Z" opacity="0.3"/>
                  <path d="M572.73,430.37l-44.73-26a1.35,1.35,0,0,0-2,1.38l4.6,29.24a5.38,5.38,0,0,0,2.62,3.83l44.73,26a1.35,1.35,0,0,0,2-1.38l-4.6-29.24A5.36,5.36,0,0,0,572.73,430.37Z" fill="#e0e0e0"/>
                  <path d="M551.05,431.12a9.88,9.88,0,0,1,4.44,6.4c.29,2.28-1.21,3.13-3.38,1.88a9.92,9.92,0,0,1-4.44-6.4C547.38,430.72,548.9,429.88,551.05,431.12Z" fill="#fff"/>
                </g>
                <g>
                  <path d="M625.85,398.13l4,13.84L605.2,429.5,596.9,433a13,13,0,0,0-5.5,4.38l-6.77,9.36c-.75,1.57,2.78,4.13,4.47,4.56h0a6.09,6.09,0,0,0,5.61-1.4l5.22-4.79,1.44-.51a21.93,21.93,0,0,0,10.5-7.87h0l28.93-11.24a11.06,11.06,0,0,0,6.69-13.19l-4.8-17.86Z" fill="#ffaa83"/>
                  <path d="M619,379.58,626.12,401c11.65.81,17.07-3.11,18.69-6.58-6.12-27.79-10.15-32.41-18.11-33S619,379.58,619,379.58Z" fill="#af6ec3"/>
                  <path d="M619,379.58,626.12,401c11.65.81,17.07-3.11,18.69-6.58-6.12-27.79-10.15-32.41-18.11-33S619,379.58,619,379.58Z" fill="#57547f"/>
                </g>
              </g>
            </g>
          </g>
          <path d="M527,416.1l-.13-.07.11.08Z" fill="#455a64"/>
          <g>
            <g>
              <path d="M344.24,596c-.85,1.79-3.56,3.44-6.51,3.93s-6-.16-8.93-.57a58.85,58.85,0,0,0-13.33-.34,69.86,69.86,0,0,1-8.29.59,13.21,13.21,0,0,1-7.8-2.47,7.91,7.91,0,0,1-2.92-5,7.54,7.54,0,0,0,2.92,6.71,13.21,13.21,0,0,0,7.8,2.47,69.87,69.87,0,0,0,8.29-.6,59.43,59.43,0,0,1,13.33.34c3,.42,6.18,1.27,9.14.78s5.66-2.14,6.51-3.92Z" fill="#263238"/>
              <g>
                <path d="M311.89,590.71c2.48,0,1.57-3.68,3.93-6.15-1,.06-1.92.08-2.89.07C310.8,587.7,310.21,590.71,311.89,590.71Z" fill="#fff"/>
                <path d="M317.05,590.52c2.5,0,1.85-4.39,4.3-6.95a16.52,16.52,0,0,1-1.7.49c-.49.11-1,.2-1.48.27C316,587.43,315.35,590.52,317.05,590.52Z" fill="#fff"/>
                <path d="M341.67,582.11a3.4,3.4,0,0,0-1.3-2l-13.44-.33a11.51,11.51,0,0,1-5.58,3.82c-2.45,2.56-1.8,6.95-4.3,6.95-1.7,0-1.07-3.09,1.12-6.19-.78.11-1.56.19-2.35.23-2.36,2.47-1.45,6.15-3.93,6.15-1.68,0-1.09-3,1-6.08l-1.88,0c-.57,0-1.15,0-1.72-.09-4.94,3.91-5.37,8.15-4.73,14.8a18.65,18.65,0,0,0,2.58.27,69.86,69.86,0,0,0,8.29-.59,58.85,58.85,0,0,1,13.33.34c3,.41,6,1,8.93.57s5.66-2.14,6.51-3.93Z" fill="#455a64"/>
                <path d="M309.33,584.52c-2.26-.18-4.55-.53-6.72,0-2.73.66-5.34,2.55-6.05,5.26a5.92,5.92,0,0,0-.1,2.37,7.91,7.91,0,0,0,2.92,5,11.62,11.62,0,0,0,5.22,2.2C304,592.67,304.39,588.43,309.33,584.52Z" fill="#fff"/>
              </g>
              <path d="M326.55,575.92v6.47a2.66,2.66,0,0,0,2.66,2.66H336a4.37,4.37,0,0,0,4.37-4.22l.16-4.91Z" fill="#905f5d"/>
            </g>
            <g>
              <path d="M371.33,573a4.94,4.94,0,0,1-4.07,2.85,8.58,8.58,0,0,1-5.16-1.27c-2.33-1.48-3.24-3.81-4.83-5.9a35.16,35.16,0,0,0-5.62-5.49c-2.12-1.78-4.24-3.71-5.37-6.23a8.14,8.14,0,0,1-.64-2.28,8,8,0,0,0,.64,4.38c1.13,2.52,3.25,4.45,5.37,6.23a35.53,35.53,0,0,1,5.62,5.48c1.59,2.1,2.5,4.43,4.83,5.91a8.58,8.58,0,0,0,5.16,1.27,5,5,0,0,0,4.07-2.85,11.31,11.31,0,0,0,.25-3.61A4.47,4.47,0,0,1,371.33,573Z" fill="#263238"/>
              <g>
                <path d="M356.06,558.83a1.65,1.65,0,0,0-.32,1.1,1.17,1.17,0,0,0,.73.84,1.6,1.6,0,0,0,1.51-.39,7.4,7.4,0,0,0,1-1.25,7.84,7.84,0,0,1,3.46-2.52,7.67,7.67,0,0,1,2.07-.46l-1.69-1.53a8.34,8.34,0,0,0-3.06.75A8.53,8.53,0,0,0,356.06,558.83Z" fill="#fff"/>
                <path d="M356.42,553.48a8.51,8.51,0,0,0-3.74,3.46,1.65,1.65,0,0,0-.33,1.11,1.14,1.14,0,0,0,.73.83,1.6,1.6,0,0,0,1.51-.39,7.4,7.4,0,0,0,1.05-1.25,7.92,7.92,0,0,1,3.46-2.52,8,8,0,0,1,3.4-.45l-1.67-1.51A8.46,8.46,0,0,0,356.42,553.48Z" fill="#fff"/>
                <path d="M359.77,551.8a17.45,17.45,0,0,0-5.27-3.52c-2.41-.92-5.4-.79-7.25,1a6.27,6.27,0,0,0-1.61,5.44,8.14,8.14,0,0,0,.64,2.28,11.86,11.86,0,0,0,1.66,2.64C348.59,553.85,353.61,551.14,359.77,551.8Z" fill="#fff"/>
                <path d="M371.47,567.36a12.06,12.06,0,0,0-1.32-5.66l-3.26-3.42-2.33-2.13a7.67,7.67,0,0,0-2.07.46,7.84,7.84,0,0,0-3.46,2.52,7.4,7.4,0,0,1-1,1.25,1.6,1.6,0,0,1-1.51.39,1.17,1.17,0,0,1-.73-.84,1.65,1.65,0,0,1,.32-1.1,8.53,8.53,0,0,1,3.75-3.46,8.34,8.34,0,0,1,3.06-.75l-.37-.35a8,8,0,0,0-3.4.45,7.92,7.92,0,0,0-3.46,2.52,7.4,7.4,0,0,1-1.05,1.25,1.6,1.6,0,0,1-1.51.39,1.14,1.14,0,0,1-.73-.83,1.65,1.65,0,0,1,.33-1.11,8.3,8.3,0,0,1,8.15-4.18l-.06-.06-1-.9c-6.16-.66-11.18,2.05-11.83,7.84a28.64,28.64,0,0,0,3.71,3.59,35.16,35.16,0,0,1,5.62,5.49c1.59,2.09,2.5,4.42,4.83,5.9a8.58,8.58,0,0,0,5.16,1.27,4.94,4.94,0,0,0,4.07-2.85,4.47,4.47,0,0,0,.25-1.51C371.65,570,371.51,568,371.47,567.36Z" fill="#455a64"/>
              </g>
              <path d="M359.68,557.13l.38,6.94c4.39,2.53,9,1.16,10.53-.44l.29-6.5Z" fill="#905f5d"/>
            </g>
            <path d="M368.32,406.93a6.37,6.37,0,0,1-.67-2.39l-.37-6-42.5,2.73c-.56,3-1.13,6.63-1.68,10.76A63.16,63.16,0,0,0,368.32,406.93Z" fill="#ffaa83"/>
            <path d="M367.48,382.87l9.06,17.49-8.22,13.77,9.09,14.38,13.73-21.32a12,12,0,0,0,1.4-9.84,167.61,167.61,0,0,0-8.92-24.28Z" fill="#ffaa83"/>
            <path d="M360.29,349.09c10.42-1.93,16.37,1.54,25.18,25.1-3.6,8.06-18.85,11-18.85,11Z" fill="#ebebeb"/>
            <path d="M340.78,351.86l-11.37,2.24c-2.51,4.6-5.07,8.92-7.58,13.52-1.9,3.46-3.85,7.14-3.7,11.09a11.31,11.31,0,0,0,6.81,9.8L323.63,404c17.85,5.45,39.68.66,44.47-3.48,1.41-6.5,2.66-13.42,4.07-19.93a67.22,67.22,0,0,0,1.93-12.81,22.58,22.58,0,0,0-3-12.44l-.07-.11a13.89,13.89,0,0,0-14-6Z" fill="#fff"/>
            <path d="M369,408a6.09,6.09,0,0,1-.66-1.09,63.16,63.16,0,0,1-45.22,5.14c-3.21,23.84-6,64.21-4.27,90.84,1.41,31,7.11,74.91,7.11,74.91,7.44,2.23,13,.86,15.13-.75,2.48-30.75,7.94-51.83,3.72-72.17,2.81-14.22,4.63-32.08,4.63-32.08l2.15,31.42,7.28,55.22a13,13,0,0,0,13.06-.66c5.29-31.58,7.27-53,2.64-68.65C381.62,438.32,382,425.06,369,408Z" fill="#455a64"/>
            <path d="M352.55,466.61l3.9-16.36c4.54-.74,11.65-3.72,15.39-10A31.28,31.28,0,0,1,353,446.94l-3.56,25.88.76,11.06.3-4A84.61,84.61,0,0,1,352.55,466.61Z" opacity="0.3"/>
            <g>
              <path d="M256.2,333.14l11.45,29.61a11.79,11.79,0,0,0,9,7.38l19.57,3.42a17.26,17.26,0,0,0,3.46-18.36A94.47,94.47,0,0,1,282,353.25s-12.37-15-17.53-22.8l3.69-12.2a4.18,4.18,0,0,0-.38-3.31l-2-3.44a4.18,4.18,0,0,0-2.29-1.88l-2.85-1a5,5,0,0,0-3.94.31l-4.35,2.27a1.66,1.66,0,0,0-.9,1.5h0a1.68,1.68,0,0,0,.9,1.46L254,315l2.25,3.82A12,12,0,0,0,256.2,333.14Z" fill="#ffaa83"/>
              <path d="M327.64,353.89c-7,.34-17.61,1.5-28,1.3a17.26,17.26,0,0,1-3.46,18.36l24.43,4.27a10.49,10.49,0,0,0,11.8-7.74c.76-3.09,1.57-5.68,2-8.7A6.56,6.56,0,0,0,327.64,353.89Z" fill="#ebebeb"/>
            </g>
            <g>
              <path d="M326.93,321.3a19.77,19.77,0,0,1-2.22-10.47A11.28,11.28,0,0,1,330.2,302c3.18-1.7,7.61-1.13,9.83,1.73,5.86-2.92,13.21-3,18.66.66A19.12,19.12,0,0,1,367,321.18c-.24,3.77-1.62,7.47-1.2,11.22.25,2.2,1.12,4.43.54,6.57a6.82,6.82,0,0,1-3.57,4c-1.65.86-5.49.63-7.3,1-5.54,5-12.51,3.15-16.93-1.35S326.93,321.3,326.93,321.3Z" fill="#37474f"/>
              <polygon points="325.78 326.3 322.32 332.32 326.11 333.72 325.78 326.3" fill="#ffaa83"/>
              <line x1="326.11" y1="333.72" x2="325.78" y2="326.3" opacity="0.3"/>
              <path d="M325.39,323.62c.56-5.28,2.1-10.26,5.54-12.78a28.51,28.51,0,0,0,4,18.89,8.28,8.28,0,0,1,2.56-4.53,4.77,4.77,0,0,1,4.91-1.05,4.87,4.87,0,0,1,2.48,2.7,6.41,6.41,0,0,1-8,8.47,12.32,12.32,0,0,0,9.47,9.58,15.8,15.8,0,0,0,9.18-.87l1.43,7.12c-5.79,6.17-15.69,2-15.69,2l-1.3-7c-11.39.68-12.46.49-13.71-5.79A61.3,61.3,0,0,1,325.39,323.62Z" fill="#ffaa83"/>
              <path d="M350.62,316a20,20,0,0,1,9.06-10.83A19.08,19.08,0,0,1,367,321.18c-.24,3.77-1.62,7.47-1.2,11.22.25,2.2,1.12,4.43.54,6.57a6.82,6.82,0,0,1-3.57,4c-1.65.86-5.49.63-7.3,1-.24.22-.49.41-.73.6a55.63,55.63,0,0,1-4.51-11.57A29.63,29.63,0,0,1,350.62,316Z" opacity="0.3"/>
              <path d="M353.78,312a14.52,14.52,0,0,1,27.68-.34c3.43,10.4-5.37,21.46-3.45,32.25.7,3.88,2.75,7.42,3.46,11.3A16.76,16.76,0,0,1,367,374.83c2.48-2.73,2.52-6.94,1.11-10.34s-3.92-6.2-6.09-9.18C353.29,343.32,349.47,326.21,353.78,312Z" fill="#37474f"/>
            </g>
          </g>
          <path id="Shadow" d="M477.38,617.91c8.08,4.72,8.08,12.37,0,17.09s-21.2,4.72-29.28,0-8.09-12.37,0-17.09S469.29,613.19,477.38,617.91Z" fill="#e0e0e0"/>
          <g id="Pot">
            <g id="Pot-2" data-name="Pot">
              <path d="M449.39,628.7c-7.14-7.37-11.34-37.36-4.37-43.2h35.43c7,5.84,2.78,35.82-4.36,43.19l-.19.2-.25.24c-.2.2-.42.39-.65.58l-.17.14a5.87,5.87,0,0,1-.54.41,10.33,10.33,0,0,1-.92.6c-5.87,3.43-15.39,3.43-21.27,0h0q-.47-.27-.93-.6c-.18-.13-.34-.26-.5-.39l-.21-.16c-.22-.19-.43-.37-.62-.56l-.29-.28Z" fill="#455a64"/>
              <path d="M477.38,583.15c8.08,4.72,8.08,12.37,0,17.09s-21.2,4.72-29.28,0-8.09-12.37,0-17.09S469.29,578.43,477.38,583.15Z" fill="#455a64"/>
              <g opacity="0.1">
                <path d="M477.38,583.15c8.08,4.72,8.08,12.37,0,17.09s-21.2,4.72-29.28,0-8.09-12.37,0-17.09S469.29,578.43,477.38,583.15Z" fill="#fff"/>
              </g>
              <path d="M473.49,585.42c5.94,3.46,5.94,9.08,0,12.55s-15.57,3.47-21.5,0-5.94-9.09,0-12.55S467.55,582,473.49,585.42Z" fill="#263238"/>
              <path d="M452,591.37c5.93-3.46,15.56-3.46,21.5,0a9.94,9.94,0,0,1,3.55,3.3,9.77,9.77,0,0,1-3.55,3.3c-5.94,3.47-15.57,3.47-21.5,0a9.81,9.81,0,0,1-3.56-3.3A10,10,0,0,1,452,591.37Z" fill="#f5f5f5"/>
            </g>
            <g>
              <path d="M482.38,527.33l-7.81,6.94,7-2.32a31,31,0,0,1-2.82,11.84l-8.67,4.65,7-1.07a13.07,13.07,0,0,1-.36,6.15c-.08.28-.16.56-.26.84-.62,1.88-1.51,5.45-3,9.67h0a61.94,61.94,0,0,1-4.87,10.65,43.43,43.43,0,0,1-3.25,4.79,2.77,2.77,0,0,1-.22.29q-3.27-2.19-6.82-4.29c-1.36-3.47-2.86-11.93-3.14-18.78-1-26.25,19.72-39.78,35.9-43.67A47.14,47.14,0,0,0,482.38,527.33Z" fill="#17a58a"/>
              <path d="M471.08,527.63a19.39,19.39,0,0,0-3.68,4.44,39,39,0,0,0-2.59,5.17,52.51,52.51,0,0,0-3.18,11.1,48.87,48.87,0,0,0,1.25,22.81h0a.39.39,0,0,1-.25.48.38.38,0,0,1-.47-.25h0a49.51,49.51,0,0,1-.89-23.11,52.89,52.89,0,0,1,3.37-11.1,39.34,39.34,0,0,1,2.69-5.15A19.52,19.52,0,0,1,471.08,527.63Z" fill="#fafafa"/>
            </g>
            <g>
              <path d="M419.61,541l0,0a202.48,202.48,0,0,1,13.44,20.18l8.25,2.48-4.79,1.58,5.14,8.72,9.16,2.82-6.35,1.76s2.6,10.32,10,14.82c4.07,2.48,6.09,2.9,7.37,1.75.89-.8,1.24-5.7,2.1-10.06s1.14-11.48-2.73-20.2a26.83,26.83,0,0,0-4.1-6.44C447.49,547,428.89,541.12,419.61,541Z" fill="#27debf"/>
              <path d="M419.61,541l0,0a202.48,202.48,0,0,1,13.44,20.18l8.25,2.48-4.79,1.58,5.14,8.72,9.16,2.82-6.35,1.76s2.6,10.32,10,14.82c4.07,2.48,6.09,2.9,7.37,1.75.89-.8,1.24-5.7,2.1-10.06s1.14-11.48-2.73-20.2a26.83,26.83,0,0,0-4.1-6.44C447.49,547,428.89,541.12,419.61,541Z" fill="#16b798"/>
              <path d="M458.32,569.32h0s0,0,0,0a40.89,40.89,0,0,1,2.78,11.38h0a124.57,124.57,0,0,1-.07,14.8,2.2,2.2,0,0,0,.77-.44c.89-.8,1.24-5.7,2.1-10.06s1.14-11.48-2.73-20.2a26.83,26.83,0,0,0-4.1-6.44c-9.6-11.37-28.2-17.28-37.48-17.43,14.17,2.77,29.2,12.72,36.42,24A28.56,28.56,0,0,1,458.32,569.32Z" opacity="0.1"/>
              <path d="M433.75,545.87a55.8,55.8,0,0,1,18.57,13.69,37,37,0,0,1,6.2,9.85,35.19,35.19,0,0,1,2.63,11.31s0,0,0,0,0,0,0,0a45.44,45.44,0,0,0-3.24-11,42.75,42.75,0,0,0-6-9.76,49.22,49.22,0,0,0-8.34-7.91,64.79,64.79,0,0,0-9.81-6.1s0,0,0-.05S433.73,545.87,433.75,545.87Z" fill="#fafafa"/>
            </g>
            <g>
              <path d="M504.24,550.65h0a27.71,27.71,0,0,0-3.44,0,54.35,54.35,0,0,0-13.3,2.47c-1.6.49-3.2,1.07-4.79,1.72-.79.33-1.58.67-2.36,1a38,38,0,0,0-10.47,7,24.07,24.07,0,0,0-3.73,4.67c-.14.22-.28.44-.41.66h0c-.32.58-.62,1.15-.9,1.72a32.78,32.78,0,0,0-3.85,16c-.08,3.92,1,8.46,1.72,9.24a1.7,1.7,0,0,0,.33.27c1.08.77,2.87.46,6.29-1.21,6.85-3.35,10-12.62,10-12.62L475,580l7.17-2.18,5.23-7.25-4.62-1.11,8-2.18a174.79,174.79,0,0,1,13.47-16.62l0,0Z" fill="#27debf"/>
              <path d="M500.8,550.62a54.35,54.35,0,0,0-13.3,2.47c-1.6.49-3.2,1.07-4.79,1.72-.79.33-1.58.67-2.36,1a38,38,0,0,0-10.47,7,24.07,24.07,0,0,0-3.73,4.67c-.14.22-.28.44-.41.66h0c-.32.58-.62,1.15-.9,1.72a32.78,32.78,0,0,0-3.85,16c-.08,3.92,1,8.46,1.72,9.24a1.7,1.7,0,0,0,.33.27,1.94,1.94,0,0,0,.72.31c-.49-6.11,3.35-21.32,8.21-27.39,5.07-6.32,16.74-15.25,32.25-17.69v0A27.25,27.25,0,0,0,500.8,550.62Z" opacity="0.05"/>
              <path d="M463.72,595.75a51.93,51.93,0,0,1,1.61-13.36,43.06,43.06,0,0,1,5.16-12.47,29.85,29.85,0,0,1,4.35-5.22,43.28,43.28,0,0,1,5.21-4.34A50.32,50.32,0,0,1,492,554.07s0,0,0,0,0,0,0,0A66.33,66.33,0,0,0,480.49,561a55.28,55.28,0,0,0-5.13,4.27,29.7,29.7,0,0,0-4.37,5,42.82,42.82,0,0,0-5.29,12.23,51.75,51.75,0,0,0-1.9,13.27,0,0,0,1,1-.08,0Z" fill="#fafafa"/>
            </g>
          </g>
        </g>
      </g>
    </g>
  </g>
</svg>
