<svg xmlns="http://www.w3.org/2000/svg" viewBox="0 0 268.83 57.65">
  <g id="Layer_2" data-name="Layer 2">
    <g id="Layer_1-2" data-name="Layer 1">
      <g>
        <g>
          <path d="M61.53,16.69a6.21,6.21,0,0,0-2.94-3.8A6.31,6.31,0,0,0,50,15.17l-6.95,12-5.37,9.24a6.14,6.14,0,0,0-.63,4.72c.06.22.13.44.21.65l.53.91a6.13,6.13,0,0,0,4.34,3l.2,0,.31,0h.47a6.13,6.13,0,0,0,1.21-.12l.34-.08h0l.44-.13a6.28,6.28,0,0,0,3.41-2.78L60.9,21.41A6.19,6.19,0,0,0,61.53,16.69Zm-.85,4.6L49,41.3l-.68,1.18a6.08,6.08,0,0,1-8.25,2.19,6,6,0,0,1-2.21-8.19l5.31-9.11,7-12.07a6.07,6.07,0,0,1,8.25-2.2,6,6,0,0,1,2.82,3.65A5.92,5.92,0,0,1,60.68,21.29Z" fill="#284463"/>
          <path d="M36.88,16.69A6.16,6.16,0,0,0,34,12.89a6.31,6.31,0,0,0-8.58,2.28l-6.95,12L13,36.36a6.19,6.19,0,0,0-.63,4.72,5,5,0,0,0,.22.65l.52.91a6.15,6.15,0,0,0,4.35,3l.19,0,.31,0h.47a6.06,6.06,0,0,0,1.21-.12l.31-.07h.06a6.29,6.29,0,0,0,3.88-2.92L36.25,21.41A6.14,6.14,0,0,0,36.88,16.69ZM36,21.29,24.4,41.3l-.69,1.18A6.05,6.05,0,0,1,12.65,41a5.92,5.92,0,0,1,.61-4.54l5.3-9.11,7-12.07a6.07,6.07,0,0,1,8.25-2.2A6,6,0,0,1,36,21.29Z" fill="#284463"/>
          <path d="M24.4,41.3a6.19,6.19,0,0,1-2.83,3.59h0a6.2,6.2,0,0,1-1.51.63H20l-.31.07-.32,0-.23,0H19l-.26,0H18l-.31,0-.19,0a6.15,6.15,0,0,1-4.35-3l-.52-.91L.83,21.29A6.16,6.16,0,0,1,11.5,15.13l6.92,12,.14.25,5.26,9.11A6.13,6.13,0,0,1,24.4,41.3Z" fill="#284463"/>
          <path d="M49,41.3a6.11,6.11,0,0,1-2.83,3.59,6.19,6.19,0,0,1-1.49.62h0l-.34.08-.32,0a2,2,0,0,1-.24,0h-.08l-.26,0h-.78l-.31,0-.2,0a6.13,6.13,0,0,1-4.34-3l-.53-.91L25.47,21.29a6.16,6.16,0,0,1,10.67-6.16l6.92,12,.15.25,5.26,9.11A6.13,6.13,0,0,1,49,41.3Z" fill="#284463"/>
          <rect x="49.03" y="11.93" width="12.84" height="12.84" rx="6.42" fill="#ef8e43"/>
        </g>
        <text transform="translate(72.67 39.78)" font-size="46.8" fill="#284463" font-family="SilkSerif-BoldItalic, Silk Serif" font-weight="700" font-style="italic">webverkz</text>
      </g>
    </g>
  </g>
</svg>
